<?xml version="1.0" encoding="UTF-8" standalone="no"?>
<svg
   id="svg8"
   version="1.1"
   viewBox="0 0 4.2343687 4.179682"
   height="15.797223"
   width="16.003914"
   xml:space="preserve"
   xmlns="http://www.w3.org/2000/svg"
   xmlns:svg="http://www.w3.org/2000/svg"
   xmlns:rdf="http://www.w3.org/1999/02/22-rdf-syntax-ns#"
   xmlns:cc="http://creativecommons.org/ns#"
   xmlns:dc="http://purl.org/dc/elements/1.1/"><defs
     id="defs2" /><metadata
     id="metadata5"><rdf:RDF><cc:Work
         rdf:about=""><dc:format>image/svg+xml</dc:format><dc:type
           rdf:resource="http://purl.org/dc/dcmitype/StillImage" /><dc:title /></cc:Work></rdf:RDF></metadata><path
     id="path13960"
     style="color:#000000;opacity:0.839806;fill:#e0234e;stroke:none;stroke-width:1.00012;stroke-dasharray:none"
     d="m 3.6499062,0.79685299 0.0098,0.0139526 c -4.78e-4,-0.001136 -0.0021,-0.006187 -0.0021,-0.006201 -3.2e-5,-4.187e-5 -0.0043,-0.004322 -0.0077,-0.007752 z" /><path
     id="path18145"
     style="color:#000000;fill:#d9af10;fill-opacity:1;stroke-linecap:square;stroke-linejoin:round;paint-order:stroke markers fill"
     d="M 2.4293085,2.3034148e-6 C 2.3883965,7.4645341e-4 2.3469575,0.0080491 2.3083857,0.0217064 a 0.13293029,0.13293029 0 0 0 -0.029456,0.2361613 c 0.02423,0.0161538 0.032456,0.0275512 0.039274,0.05271 1.651e-4,6.0938e-4 -1.653e-4,0.001441 0,0.002067 -1.035e-4,-9.0561e-4 2.428e-4,0.003862 0,0.002067 a 0.13293029,0.13293029 0 0 0 0.00207,0.003617 0.13293029,0.13293029 0 0 0 0,0.002067 0.13293029,0.13293029 0 0 0 0,0.002067 c 9.52e-4,0.0251787 -3.975e-4,0.0270994 -0.00207,0.0310059 -0.00157,0.003673 -0.015951,0.0271743 -0.029456,0.0609782 -0.017563,0.0404272 0.00928,0.0816117 0.00775,0.1245402 C 2.2562487,0.527572 2.2163237,0.5174592 2.1755749,0.5079811 L 2.1109789,0.4924782 a 0.13293029,0.13293029 0 0 0 -0.00362,0 C 2.0464644,0.48028072 1.9856775,0.47158359 1.923913,0.46509019 l -0.00413,-0.002067 a 0.13293029,0.13293029 0 0 0 -0.00775,0 0.13293029,0.13293029 0 0 0 -0.00568,-0.002067 c -0.1781601,-0.0182963 -0.3569346,-0.0115198 -0.5333007,0.019637 -0.048685,0.008389 -0.0967,0.0177458 -0.144694,0.0294556 a 0.13293029,0.13293029 0 0 0 -0.00362,0.00155 l -0.044958,0.0118856 a 0.13293029,0.13293029 0 0 0 -0.013953,0.004134 c -0.023756,0.00921 -0.038964,0.0189412 -0.048576,0.0232544 v -0.002067 l -0.031523,0.0160197 h -0.00207 a 0.13293029,0.13293029 0 0 0 -0.00155,0.00155 c -3.52e-4,1.5244e-4 -0.043163,0.0271445 -0.043408,0.0273885 l 0.037207,-0.0253214 c -0.010065,0.004799 -0.024066,0.0114664 -0.040824,0.0217041 -0.01166,0.005633 -0.023881,0.0111656 -0.03514,0.01757 -0.00564,0.002865 -0.013496,0.005377 -0.01757,0.007751 -0.00148,6.7301e-4 -0.00274,0.001228 -0.00413,0.002067 a 0.13293029,0.13293029 0 0 0 -0.00568,0.003617 l -0.027388,0.0139526 c -0.012835,0.007219 -0.025279,0.0166862 -0.037207,0.0253214 v -0.002067 c 1.511e-4,-1.0828e-4 -0.00954,0.007654 -0.01757,0.0134359 l -0.00207,0.002067 c -0.00251,0.001877 -0.00298,0.00211 -0.00568,0.004134 -7.614e-4,5.2037e-4 -0.00131,0.001541 -0.00207,0.002067 a 0.13293029,0.13293029 0 0 0 -0.00155,0.00155 0.13293029,0.13293029 0 0 0 -0.00207,0 c -0.0015,0.00107 -0.00265,0.003041 -0.00413,0.004134 -0.00383,0.002816 -0.00765,0.004786 -0.011369,0.007751 a 0.13293029,0.13293029 0 0 0 -0.011886,0.009819 l -0.00207,0.002067 a 0.13293029,0.13293029 0 0 0 -0.00775,0.007751 l 0.00207,-0.004134 a 0.13293029,0.13293029 0 0 0 -0.00775,0.006201 l -0.00827,0.007751 c -0.00223,0.001694 -0.00458,0.005871 -0.0093,0.009819 a 0.13293029,0.13293029 0 0 0 -0.00207,0.00155 0.13293029,0.13293029 0 0 0 -0.00413,0.004134 c -2.318e-4,7.469e-5 -0.00196,0.002032 -0.00207,0.002067 -1.197e-4,1.6995e-4 -0.0014,-2.0998e-4 -0.00155,0 -3.65e-5,2.558e-5 -0.00612,0.00463 -0.011885,0.009819 -0.00272,0.002359 -0.00509,0.005322 -0.00775,0.007751 2.68e-5,-2.685e-5 -0.00174,0.001144 -0.00207,0.00155 -3.355e-4,3.0299e-4 -0.00206,0.002061 -0.00207,0.002067 -0.0046,0.00431 -0.00903,0.009437 -0.013436,0.0139526 0.00269,-0.00242 0.00481,-0.00148 0.00775,-0.004134 4.106e-4,-5.3806e-4 -4.213e-4,-0.001515 0,-0.002067 0.00419,-0.00378 0.00985,-0.007771 0.00982,-0.007751 -1.57e-5,1.105e-5 0.00631,-0.001616 0.00775,-0.002067 0.00214,-6.6843e-4 0.00729,-0.00231 0.011369,-0.003617 a 0.13293029,0.13293029 0 0 0 -0.01912,0.0134359 0.13293029,0.13293029 0 0 0 -0.015503,0.008268 0.13293029,0.13293029 0 0 0 -0.00413,0.00155 c -3.535e-4,3.1805e-4 -0.00177,-2.639e-4 -0.00207,0 -3.173e-4,3.8594e-4 3.704e-4,0.001616 0,0.002067 -6.714e-4,6.0343e-4 -0.00363,0.002077 -0.00362,0.002067 2.1e-5,-2.416e-5 -0.00268,0.00171 -0.00413,0.003617 l -0.00362,0.004134 -0.00207,0.002067 c -1.046e-4,1.2995e-4 8.5e-6,0.002054 0,0.002067 a 0.13293029,0.13293029 0 0 0 -0.013953,0.0134359 c -0.00173,0.002071 -0.00452,0.003054 -0.00568,0.004134 a 0.13293029,0.13293029 0 0 0 -0.013436,0.0155029 l -0.01757,0.019637 -0.00207,0.00155 a 0.13293029,0.13293029 0 0 0 -0.00413,0.004134 c -0.012491,0.0135403 -0.026808,0.0252524 -0.040824,0.037207 a 0.13293029,0.13293029 0 0 0 0,0.00155 c -0.029999,0.0258154 -0.061295,0.0489953 -0.095601,0.0687296 -0.032127,0.0172775 -0.067052,0.0297302 -0.1018026,0.0408243 -8.131e-4,2.596e-4 -0.00125,0.00182 -0.00207,0.00207 -0.047456,0.01084 -0.090182,0.022755 -0.095601,0.023254 -0.011282,8.9e-4 -0.025026,0.0018 -0.027388,0.00207 a 0.13293029,0.13293029 0 0 0 -0.01757,0.00413 l -0.025322,0.00568 a 0.13293029,0.13293029 0 0 0 -0.011886,0.00413 l -0.025321,0.0093 a 0.13293029,0.13293029 0 0 0 -0.011369,0.00413 l -0.023771,0.011885 a 0.13293029,0.13293029 0 0 0 -0.015503,0.00775 l -0.021704,0.013436 a 0.13293029,0.13293029 0 0 0 -0.00568,0.00413 c -0.00753,0.00531 -0.014183,0.011594 -0.021187,0.01757 -0.00217,0.00155 -0.00219,0.00214 -0.00413,0.00362 -0.00379,0.00336 -0.00827,0.00627 -0.011886,0.00982 -0.00865,0.00774 -0.017784,0.017801 -0.023254,0.023771 a 0.13293029,0.13293029 0 0 0 -0.00207,0.00155 c -5.738e-4,6.619e-4 -0.013223,0.00926 -0.029456,0.03359 a 0.13293029,0.13293029 0 0 0 -0.00103,0.00207 c -0.00184,0.00179 -0.01057,0.013941 -0.022221,0.038757 -0.00406,0.00674 -0.00989,0.012599 -0.013436,0.019637 a 0.13293029,0.13293029 0 0 0 -0.00207,0.00775 l -0.011886,0.025321 a 0.13293029,0.13293029 0 0 0 -0.00362,0.00775 c -0.00361,0.010223 -0.00658,0.021177 -0.00982,0.031523 a 0.13293029,0.13293029 0 0 0 -0.00207,0.00982 c -2.35e-4,9.984e-4 -0.00274,0.013591 -0.00413,0.01912 a 0.13293029,0.13293029 0 0 0 -0.00362,0.00982 c -0.00329,0.015646 -0.00149,0.010643 -0.00207,0.01757 -4.358e-4,0.0052 -0.00185,0.017592 -0.00207,0.019637 -8.528e-4,0.00596 -0.003620004517,0.019793 -0.003620004517,0.039274 0,0.00322 -1.2910000345e-4,0.016445 0.003620004517,0.03669 0.00311,0.020048 0.00955,0.040294 0.01757,0.058911 a 0.13293029,0.13293029 0 0 0 0.00413,0.011886 c 0.00863,0.018641 0.015829,0.028974 0.021187,0.03669 a 0.13293029,0.13293029 0 0 0 0,0.00207 l 0.013953,0.01757 a 0.13293029,0.13293029 0 0 0 0.011885,0.013953 c 0.014532,0.015356 0.029746,0.030024 0.046509,0.042891 0.00136,0.00117 0.00478,0.0024 0.0062,0.00362 7.369e-4,5.455e-4 8.093e-4,0.00153 0.00155,0.00207 0.011441,0.00979 0.028758,0.021864 0.044959,0.033073 0.00205,0.00585 0.00383,0.011835 0.0062,0.01757 a 0.13293029,0.13293029 0 0 0 0,0.00207 l 0.00775,0.01757 a 0.13293029,0.13293029 0 0 0 0.013436,0.023254 l 0.00413,0.0062 c 0.00163,0.00305 0.00193,0.0068 0.00362,0.00982 a 0.13293029,0.13293029 0 0 0 0.00827,0.013436 l 0.015503,0.021704 a 0.13293029,0.13293029 0 0 0 0.00568,0.00568 c 0.00809,0.00984 0.016384,0.020384 0.025322,0.029456 a 0.13293029,0.13293029 0 0 0 0.0062,0.00362 l 0.01912,0.01757 a 0.13293029,0.13293029 0 0 0 0.00207,0.00207 c 6.681e-4,5.797e-4 0.0014,0.0015 0.00207,0.00207 0.014611,0.012486 0.034289,0.01748 0.050643,0.027389 4.712e-4,0.028125 -0.00526,0.047116 0.019637,0.1012858 0.00445,0.00894 0.013123,0.023345 0.013436,0.023771 3.437e-4,4.682e-4 0.026978,0.028623 0.027388,0.028939 6.561e-4,5.041e-4 0.042408,0.014537 0.062528,0.021704 0.00393,0.00649 0.00958,0.015184 0.00982,0.015503 4.454e-4,5.918e-4 0.028919,0.026991 0.029456,0.027388 0.00107,7.937e-4 0.076616,0.02734 0.078031,0.027389 7.077e-4,2.45e-5 0.022274,-2.78e-4 0.031523,-0.00207 0.00925,-0.00179 0.016492,-0.00522 0.023254,-0.00775 0.013526,-0.00507 0.023102,-0.010416 0.031006,-0.015503 0.031618,-0.02035 0.045406,-0.036279 0.060978,-0.054777 0.014599,-0.017342 0.026833,-0.040313 0.040824,-0.060461 C 1.263328,1.895374 1.6715758,2.196197 1.8572476,2.6370671 a 0.13293029,0.13293029 0 0 0 -0.042891,0.03669 0.13293029,0.13293029 0 0 0 -0.1875855,0.054777 c -0.011148,0.046045 -0.038923,0.08558 -0.062528,0.127124 -0.022831,-0.00882 -0.048318,-0.01026 -0.064596,-0.029456 4.052e-4,-0.00127 -5.285e-4,-0.00239 0,-0.00362 a 0.13293029,0.13293029 0 0 0 0.01602,-0.029455 c 0.012336,-0.034905 0.022116,-0.072658 0.017572,-0.1209365 -0.00454,-0.048278 -0.033061,-0.1075293 -0.078031,-0.1405599 a 0.13293029,0.13293029 0 0 0 -0.00827,-0.0062 c -0.013009,-0.00829 -0.026501,-0.015459 -0.040823,-0.021188 a 0.13293029,0.13293029 0 0 0 -0.00775,-0.00207 l -0.00982,-0.00413 -0.00568,-0.00207 a 0.13293029,0.13293029 0 0 0 -0.013953,-0.00362 c -0.00484,-0.00129 -0.01387,-0.00372 -0.023254,-0.00568 -0.010393,-0.00278 -0.020836,-0.00505 -0.031523,-0.0062 l -0.013436,-0.00207 c -0.00879,-9.773e-4 -0.018543,-0.00136 -0.027388,-0.00155 a 0.13293029,0.13293029 0 0 0 -0.00982,0.00155 h -0.00775 c -0.020478,1.092e-4 -0.040869,0.00386 -0.060462,0.00982 l 0.019637,-0.00568 c -0.00518,7.364e-4 -0.018347,0.00394 -0.03359,0.00775 -0.01288,0.00319 -0.026398,0.00706 -0.038757,0.011886 a 0.13293029,0.13293029 0 0 0 -0.00775,0.00362 l -0.019637,0.00827 a 0.13293029,0.13293029 0 0 0 -0.00413,0.00155 c -0.013829,0.0069 -0.015596,0.00852 -0.00982,0.0062 a 0.13293029,0.13293029 0 0 0 -0.023254,0.011369 C 0.91106853,2.6427103 0.87287233,2.8419565 0.90588733,2.9982689 c 0.016185,0.076628 0.07851,0.1205554 0.11730547,0.1834513 -0.0091,0.00501 -0.01096,6.809e-4 -0.023254,0.00982 a 0.13293029,0.13293029 0 0 0 -0.015503,0.011885 l -0.00207,0.00155 a 0.13293029,0.13293029 0 0 0 0.025321,0.2092896 c 0.04991,0.030283 0.1024517,0.054411 0.1560628,0.075964 a 0.13293029,0.13293029 0 0 0 0.00775,0.00413 c 0.068215,0.022222 0.1374329,0.042134 0.1684652,0.050643 l -0.00103,-0.00103 a 0.13293029,0.13293029 0 0 0 0.010335,0.0031 c 0.094682,0.019266 0.1915986,0.027298 0.289388,0.021187 a 0.13293029,0.13293029 0 0 0 0.00207,0 C 1.8448184,3.5534109 1.99688,3.4495725 2.1202835,3.3062604 V 2.4877058 C 1.8814132,1.9299494 1.2965139,1.5788221 0.67179313,1.730646 a 0.13293029,0.13293029 0 0 0 -0.1229899,-0.029455 0.13293029,0.13293029 0 0 0 -0.03514,-0.015503 l -0.00775,-0.00413 a 0.13293029,0.13293029 0 0 0 -0.00775,-0.00155 c -0.012268,-0.00355 -0.023943,-0.0092 -0.03359,-0.01757 a 0.13293029,0.13293029 0 0 0 -0.028939,-0.019637 l 0.0093,0.00362 v -0.00155 c -0.00127,-0.00143 -0.0024,-0.00265 -0.00362,-0.00413 l -0.00207,-0.00207 -0.00362,-0.00568 -0.00413,-0.00775 c -2.61e-4,-5.294e-4 2.579e-4,-0.00154 0,-0.00207 a 0.13293029,0.13293029 0 0 0 -0.011886,-0.01757 h 0.00207 l 0.00207,0.00207 c -0.00254,-0.00614 -0.00487,-0.013044 -0.00568,-0.019637 A 0.13293029,0.13293029 0 0 0 0.32814483,1.478465 l -0.00207,-0.00155 h -0.00207 c -0.018848,-0.00934 -0.00404,-0.00265 -0.031006,-0.025838 a 0.13293029,0.13293029 0 0 0 -0.00982,-0.00775 c -0.00465,-0.0034 -0.00771,-0.00741 -0.011886,-0.011369 l -0.00568,-0.0062 v -0.00155 c 8.967e-4,-0.00766 0.00378,-0.022093 0.00207,-0.013953 l -0.00413,0.00879 a 0.13293029,0.13293029 0 0 0 0,-5.167e-4 0.13293029,0.13293029 0 0 0 0,-5.168e-4 0.13293029,0.13293029 0 0 0 0,-5.168e-4 0.13293029,0.13293029 0 0 0 0,-5.167e-4 0.13293029,0.13293029 0 0 0 0,-5.168e-4 0.13293029,0.13293029 0 0 0 0,-5.167e-4 0.13293029,0.13293029 0 0 0 0.00775,-0.026872 l 0.00207,-0.00207 -0.00207,0.00982 c 0.00142,-0.00454 0.00261,-0.00944 0.00413,-0.013953 l 0.00362,-0.00775 0.00413,-0.011886 0.00362,-0.00568 a 0.13293029,0.13293029 0 0 0 0.011886,-0.019637 c -0.0051,0.010874 0.00194,3.105e-4 0.00568,-0.00568 l 0.00207,-0.00413 c 9.8e-6,2.865e-4 -0.00189,0.00512 0.00568,-0.00362 a 0.13293029,0.13293029 0 0 0 0.00982,-0.00982 l 0.0062,-0.00413 0.00982,-0.00568 0.00982,-0.00413 0.011369,-0.00568 0.00982,-0.00207 0.00982,-0.00155 a 0.13293029,0.13293029 0 0 0 0.00568,0 c 0.067959,-0.00626 0.1104084,-0.026041 0.1369425,-0.031523 a 0.13293029,0.13293029 0 0 0 0.013436,-0.00207 c 0.052758,-0.016597 0.1038494,-0.03974 0.1524455,-0.066146 a 0.13293029,0.13293029 0 0 0 0.00207,0 c 0.048801,-0.028072 0.095819,-0.060946 0.1384929,-0.097668 0.020674,-0.017633 0.040338,-0.037014 0.058911,-0.056844 l 0.00155,-0.00207 a 0.13293029,0.13293029 0 0 0 0.00207,-0.00155 l 0.023771,-0.025838 0.00775,-0.009302 0.00362,-0.004134 0.00775,-0.007752 a 0.13293029,0.13293029 0 0 0 0.00775,-0.007752 0.13293029,0.13293029 0 0 0 0.00207,0 l 0.013953,-0.0155029 c -3.91e-5,3.907e-5 0.00138,-0.003297 0.00207,-0.004134 6.4e-6,-4.47e-6 -0.00286,9.5838e-4 -0.0031,0.001034 a 0.13293029,0.13293029 0 0 0 0.010852,-0.008785 h 5.168e-4 c 4.673e-4,1.0017e-4 6.995e-4,3.0051e-4 0.00103,0 a 0.13293029,0.13293029 0 0 0 0.0031,-0.003101 c 4.41e-4,-2.3392e-4 7.532e-4,-6.9353e-4 0.00103,-0.001034 5.802e-4,-7.6218e-4 0.00182,-0.001222 0.00207,-0.00155 l 0.00362,-0.004134 c 4.474e-4,-5.4392e-4 0.00143,-0.001288 0.00207,-0.002067 2.362e-4,-2.1197e-4 0.00191,1.435e-4 0.00207,0 4.501e-4,-3.2319e-4 0.00138,-0.001522 0.00207,-0.002067 8.024e-4,-9.8089e-4 7.133e-4,-5.2654e-4 0.00155,-0.00155 0.00297,-0.002468 0.00543,-0.003719 0.00827,-0.006201 v -0.00155 l 0.00568,-0.004134 0.00568,-0.005684 h 0.00207 a 0.13293029,0.13293029 0 0 0 0.00207,-0.002067 l 0.013436,-0.0118856 a 0.13293029,0.13293029 0 0 0 0.00413,-0.003617 c 6.9e-4,-3.6452e-4 0.00173,-0.001658 0.00207,-0.002067 -2.28e-5,1.253e-5 0.00124,-0.001825 0.00155,-0.002067 a 0.13293029,0.13293029 0 0 0 0.00413,-0.002067 0.13293029,0.13293029 0 0 0 0.00207,-0.002067 0.13293029,0.13293029 0 0 0 0.00982,-0.005684 c 7e-5,-5.366e-5 0.00503,-0.00485 0.00775,-0.007751 l -0.00207,0.004134 c 0.00237,-0.001682 0.006,-0.004052 0.011886,-0.008268 0.00373,-0.002698 0.00736,-0.005495 0.011369,-0.007751 l 0.01602,-0.009819 0.0093,-0.003617 c 0.0046,-0.002356 0.00952,-0.00508 0.013953,-0.007751 a 0.13293029,0.13293029 0 0 0 0.01757,-0.007751 c 0.00879,-0.004999 0.018158,-0.009829 0.027389,-0.0139526 a 0.13293029,0.13293029 0 0 0 0.013436,-0.007751 c 8.082e-4,-4.9374e-4 0.00714,-0.002777 0.01757,-0.007751 l 0.0062,-0.004134 0.027388,-0.0113688 a 0.13293029,0.13293029 0 0 0 0.00155,0 c 0.017883,-0.008024 0.028487,-0.0148826 0.03514,-0.01757 h 0.00207 l 0.031523,-0.007751 c 0.040732,-0.009841 0.081694,-0.0187228 0.1229899,-0.0258382 0.1476529,-0.0260845 0.2998343,-0.031662 0.4490682,-0.01757 h 0.00568 0.00207 a 0.13293029,0.13293029 0 0 0 0.00982,0.002067 c 0.057041,0.005654 0.1138119,0.0140641 0.1700155,0.0253214 l 0.058394,0.0139526 a 0.13293029,0.13293029 0 0 0 0.00207,0 c 0.037176,0.008647 0.072841,0.0190148 0.1095541,0.0294556 l 0.220648,0.0857513 A 0.13293029,0.13293029 0 0 0 2.6132766,0.70331855 l -0.00207,-0.004134 -0.00207,-0.005684 -0.00362,-0.0134359 v -0.002067 c -0.00137,-0.005114 -0.00183,-0.0102099 -0.00207,-0.0155029 a 0.13293029,0.13293029 0 0 0 0,-5.1676e-4 0.13293029,0.13293029 0 0 0 0,-5.1676e-4 0.13293029,0.13293029 0 0 0 0,-5.1677e-4 0.13293029,0.13293029 0 0 0 0,-5.1676e-4 0.13293029,0.13293029 0 0 0 0,-5.1677e-4 0.13293029,0.13293029 0 0 0 0,-5.1676e-4 0.13293029,0.13293029 0 0 0 0,-5.1677e-4 0.13293029,0.13293029 0 0 0 0,-5.1676e-4 0.13293029,0.13293029 0 0 0 0,-5.1676e-4 0.13293029,0.13293029 0 0 0 0,-5.1677e-4 0.13293029,0.13293029 0 0 0 0,-5.1676e-4 0.13293029,0.13293029 0 0 0 0,-5.1677e-4 0.13293029,0.13293029 0 0 0 -5.168e-4,-0.002067 l 5.168e-4,-5.1677e-4 c 6.25e-5,-6.3703e-4 0,-0.001635 0,-0.003101 v -0.0118856 -0.003617 a 0.13293029,0.13293029 0 0 0 0,-5.1677e-4 0.13293029,0.13293029 0 0 0 0,-5.1676e-4 0.13293029,0.13293029 0 0 0 0,-5.1677e-4 0.13293029,0.13293029 0 0 0 0,-5.1676e-4 l 0.00207,-0.0118856 c 4.076e-4,-0.00132 0.00112,-0.002306 0.00155,-0.003617 a 0.13293029,0.13293029 0 0 0 0.00207,-0.008268 l 0.00207,-0.003617 0.00982,-0.0155029 v -0.002067 c 5.212e-4,-7.4481e-4 0.00154,-0.001334 0.00207,-0.002067 a 0.13293029,0.13293029 0 0 0 0.00775,-0.0118856 h 0.00207 a 0.13293029,0.13293029 0 0 0 0.00155,-0.003617 0.13293029,0.13293029 0 0 0 0.00982,-0.009819 l 0.00207,-0.002067 a 0.13293029,0.13293029 0 0 0 0.00568,-0.004134 c -8.401e-4,7.4902e-4 0.00116,-8.8937e-4 0.0031,-0.002584 0.00171,-0.001301 0.004,-0.002836 0.00672,-0.004651 a 0.13293029,0.13293029 0 0 0 0.00207,0 c 0.010411,-0.007172 0.034914,-0.0218714 0.064596,-0.0434082 0.017938,-0.0119326 0.028236,-0.0207294 0.031006,-0.0232544 a 0.13293029,0.13293029 0 0 0 0.00207,-0.005684 c 0.00953,-0.009029 0.027196,-0.0226477 0.021704,-0.01757 a 0.13293029,0.13293029 0 0 0 0.013436,-0.0160197 c 0.00615,-0.007723 0.01191,-0.01517 0.01757,-0.0232544 0.00262,-0.00298 0.00396,-0.004814 0.00465,-0.005684 h -5.167e-4 l 0.00362,-0.007751 a 0.13293029,0.13293029 0 0 0 0.013953,-0.0217041 c 0.030233,0.0205619 0.058979,0.0421471 0.08785,0.0645955 4.215e-4,3.2772e-4 0.00113,-3.2811e-4 0.00155,0 0.018417,0.0169666 0.0355,0.0352274 0.05116,0.054777 0.012029,0.0154163 0.024055,0.0304003 0.03514,0.0465088 l 0.02739,0.0511597 c 0.0074,0.0147294 0.01514,0.0291215 0.02119,0.0444417 l 0.01757,0.054777 c 0.0093,0.0349695 0.01476,0.0693465 0.01757,0.10541992 9.07e-4,0.0150333 0.0021,0.0283985 0.0021,0.0392741 0,0.0140467 -0.0014,0.0338304 -0.0036,0.054777 a 0.13293029,0.13293029 0 0 0 0,0.002067 c -0.0013,0.0145139 -0.0043,0.0332016 -0.0083,0.0563273 -0.0041,0.0179488 -0.0091,0.0355543 -0.01344,0.0490926 -0.01126,0.034692 -0.02513,0.067357 -0.04289,0.099219 a 0.13293029,0.13293029 0 0 0 -0.0021,0.00207 c -0.0058,0.010632 -0.01445,0.025283 -0.02532,0.042891 a 0.13293029,0.13293029 0 0 0 0,0.00207 c -0.01108,0.01513 -0.02421,0.031513 -0.037207,0.047026 -0.01326,0.015309 -0.024513,0.02756 -0.033073,0.03514 a 0.13293029,0.13293029 0 0 0 -0.0062,0.00568 c -0.012234,0.012273 -0.025097,0.022411 -0.038757,0.033073 -0.013096,0.00994 -0.028031,0.021764 -0.044958,0.03359 -0.031077,0.019427 -0.065529,0.035433 -0.099735,0.048576 -0.052796,0.019484 -0.1077161,0.032728 -0.1638143,0.037207 a 0.13293029,0.13293029 0 0 0 0.00775,0.2635498 c 0.0045,0.00113 0.00892,0.00101 0.013436,0.00207 0.082298,0.019327 0.1655386,0.034018 0.2501139,0.029456 a 0.13293029,0.13293029 0 0 0 0.00413,-0.00207 c 0.021676,-0.0019 0.049176,-0.00404 0.080099,-0.00982 0.081129,-0.01395 0.1583657,-0.039213 0.2320267,-0.075964 0.04882,-0.024429 0.09591,-0.052799 0.13901,-0.0863 a 0.13293029,0.13293029 0 0 0 0.0057,-0.00568 l 0.02325,-0.019637 0.02739,-0.023254 a 0.13293029,0.13293029 0 0 0 0.0098,-0.00775 c 0.01704,-0.017037 0.03578,-0.036112 0.05478,-0.058911 h -0.0021 c 0.03543,-0.041434 0.06752,-0.085179 0.09405,-0.1328085 a 0.13293029,0.13293029 0 0 0 0,-5.167e-4 0.13293029,0.13293029 0 0 0 0,-5.168e-4 0.13293029,0.13293029 0 0 0 0,-5.168e-4 c 0.003,-0.00563 0.0049,-0.011888 0.0078,-0.01757 0.115787,0.1595243 0.248563,0.3103717 0.321945,0.5916951 0.01728,0.066262 0.0194,0.1364675 0.01137,0.2092896 h 0.289905 c -0.0071,-0.095649 -0.02204,-0.188077 -0.04496,-0.2759522 -0.111423,-0.427162 -0.332025,-0.7315412 -0.492477,-0.90227059 -0.002,-0.002175 -0.0037,-0.009762 -0.0057,-0.0118856 -0.0065,-0.0068 -0.01338,-0.0304249 -0.01964,-0.0366903 -0.0072,-0.007113 -0.02154,-0.0236499 -0.0217,-0.0237712 -2.07e-4,-1.5285e-4 -0.0053,-0.003373 -0.0057,-0.003617 a 0.13293029,0.13293029 0 0 0 -0.02739,-0.002067 0.13293029,0.13293029 0 0 0 -0.04496,-0.002067 0.13293029,0.13293029 0 0 0 -0.08992,0.0413411 0.13293029,0.13293029 0 0 0 -0.02894,0.0134359 v 0.002067 l 0.01757,0.003617 a 0.13293029,0.13293029 0 0 0 -0.02377,0.0392741 c 0.0011,-0.0149066 0.0021,-0.0286061 0.0021,-0.0449585 0,-0.0217741 -0.0011,-0.0406889 -0.0021,-0.0568441 a 0.13293029,0.13293029 0 0 0 0,-5.1677e-4 0.13293029,0.13293029 0 0 0 0,-5.1676e-4 0.13293029,0.13293029 0 0 0 0,-5.1677e-4 c -0.0042,-0.0539901 -0.01317,-0.10794327 -0.02739,-0.16019694 a 0.13293029,0.13293029 0 0 0 -0.0015,-0.007751 l -0.02377,-0.0645955 a 0.13293029,0.13293029 0 0 0 -0.0015,-0.005684 c -0.01001,-0.0253302 -0.02114,-0.0501912 -0.03359,-0.0744141 a 0.13293029,0.13293029 0 0 0 -0.0036,-0.005684 l -0.03359,-0.0609782 a 0.13293029,0.13293029 0 0 0 -0.0057,-0.007751 c -0.01447,-0.0210322 -0.02922,-0.0424253 -0.04496,-0.0625285 a 0.13293029,0.13293029 0 0 0 -0.0021,0 c -0.0267,-0.0333256 -0.05597,-0.0651332 -0.08785,-0.0935343 a 0.13293029,0.13293029 0 0 0 -0.0057,-0.005684 C 3.0413752,0.19900829 2.9909822,0.16379114 2.9393549,0.13074368 a 0.13293029,0.13293029 0 0 0 -0.00568,-0.003617 c -0.00491,-0.002766 -0.010974,-0.005249 -0.01602,-0.007752 l -0.01912,-0.009818 C 2.8737739,0.0957608 2.8466309,0.08611376 2.8199869,0.07648337 2.819179,0.07619135 2.8192466,0.07470427 2.8184369,0.07441627 a 0.13293029,0.13293029 0 0 0 -0.00413,0 c -0.00881,-0.00307 -0.016343,-0.0092855 -0.025322,-0.01188558 v 0.0062012 a 0.13293029,0.13293029 0 0 0 -0.049093,-0.0098185 0.13293029,0.13293029 0 0 0 -0.05426,0.05270996 C 2.6647642,0.09244374 2.6427445,0.07029019 2.6267125,0.05891344 a 0.13293029,0.13293029 0 0 0 -0.00568,-0.0041341 C 2.5787293,0.0281745 2.5295617,0.02101069 2.4804682,0.01395494 a 0.13293029,0.13293029 0 0 0 -0.0062,-0.0062012 v 0.0041341 C 2.4592992,0.01000524 2.4465682,-3.8526585e-5 2.4313772,2.2634148e-6 a 0.13293029,0.13293029 0 0 0 -0.00155,0 z M 2.3042516,0.72243883 c 0.00193,0.003416 0.00439,0.006731 0.0062,0.0103353 7.045e-4,0.001175 -7.194e-4,0.002449 0,0.003617 z m 1.0552326,0.20360514 c 0.0024,0.0103811 0.0035,0.0140099 0.0057,0.0232544 -0.0037,-0.008764 -0.0064,-0.0143868 -0.0078,-0.01757 2.32e-4,-0.002206 0.0019,-0.003434 0.0021,-0.005684 z m -3.09386787,0.50384523 0.00775,0.029456 a 0.13293029,0.13293029 0 0 0 -0.00775,-0.027389 z M 1.2479853,2.7460879 c -0.00489,0.015303 -0.011513,0.031115 -0.013953,0.047026 a 0.13293029,0.13293029 0 0 0 -0.00155,0.019637 v 0.013436 c 0,0.0083 -8.364e-4,0.023325 0.00155,0.041341 a 0.13293029,0.13293029 0 0 0 0.00207,0.00155 c 0.00197,0.013784 0.00525,0.026142 0.00982,0.039274 7.758e-4,0.00269 0.00133,0.0018 0.00207,0.00413 0.00119,0.00322 7.231e-4,0.00613 0.00207,0.0093 0.00295,0.00763 0.00715,0.01812 0.00775,0.019637 a 0.13293029,0.13293029 0 0 0 0.00568,0.011886 c 0.00133,0.00296 0.00425,0.00843 0.00982,0.01757 a 0.13293029,0.13293029 0 0 0 0.00568,0.00775 c 0.00175,0.0025 0.00191,0.005 0.00413,0.00775 0.084627,0.1091221 0.2198405,0.1697809 0.3576009,0.160197 a 0.13293029,0.13293029 0 0 0 0.093534,-0.050643 c 0.00514,-0.00641 0.00695,-0.015141 0.011886,-0.021704 a 0.13293029,0.13293029 0 0 0 0.097669,-0.00568 c 0.077978,-0.05583 0.1041601,-0.1247602 0.1405599,-0.1917195 0.014473,0.010073 0.020428,0.017946 0.021187,0.021704 3.59e-5,1.777e-4 -1.78e-5,0.00192 0,0.00207 a 0.13293029,0.13293029 0 0 0 0.019637,0.025322 C 1.8882442,3.065737 1.8281963,3.2875743 1.6210891,3.3026431 c -0.071325,0.00446 -0.140339,-0.0018 -0.2108398,-0.015503 -0.012942,-0.00355 -0.045055,-0.014357 -0.06873,-0.021187 A 0.13293029,0.13293029 0 0 0 1.2908767,3.1486473 c -0.0363,-0.023573 -0.1045311,-0.117761 -0.1229899,-0.2051554 -0.018459,-0.087394 -0.010448,-0.1434252 0.056844,-0.1875855 5.204e-4,-3.352e-4 0.00608,-0.00227 0.00568,-0.00207 l 0.00982,-0.00362 0.00362,-0.00207 a 0.13293029,0.13293029 0 0 0 0.00413,-0.00207 z m 0.8722982,0.703833 c -0.017358,0.015419 -0.034909,0.030316 -0.053743,0.044442 -0.00862,0.00595 -0.019565,0.011928 -0.021704,0.013436 a 0.13293029,0.13293029 0 0 0 -0.00207,0.00207 l -0.00568,0.00413 a 0.13293029,0.13293029 0 0 0 -0.00207,0.00155 c -0.00502,0.00374 -0.010256,0.00848 -0.015503,0.011886 a 0.13293029,0.13293029 0 0 0 -0.047026,0.1700154 l 0.00207,0.00568 a 0.13293029,0.13293029 0 0 0 0.097668,0.060462 C 2.0110065,3.8038346 1.9715917,3.8693697 1.904276,3.9005394 a 0.13293029,0.13293029 0 0 0 0.064595,0.2537313 c 0.050759,-0.00337 0.1011863,-0.00885 0.151412,-0.016536 z" /><path
     id="path18147"
     style="color:#000000;fill:#4b3a05;fill-opacity:0.75;stroke-width:0.265834;stroke-linecap:square;stroke-linejoin:round;paint-order:stroke markers fill"
     d="m 2.4308588,0.13281074 a 0.24736668,0.24736668 0 0 0 -0.078031,0.0144694 c 0.051229,0.0341532 0.079871,0.07954 0.093534,0.13125813 0.00147,0.006821 0.00314,0.0112849 0.00413,0.0186035 a 0.11075393,0.11075393 0 0 1 0.00207,0.0180867 c 0.00391,0.088798 -0.023346,0.099752 -0.042375,0.15244548 a 0.2151651,0.2151651 0 0 0 0.013953,0.19843749 0.12051196,0.12051196 0 0 0 0.012402,0.0222209 C 2.3980025,0.43364774 2.6104464,0.39524452 2.6499669,0.31522854 2.6528983,0.24545923 2.595608,0.19911777 2.5502314,0.16691718 A 0.22248364,0.22248364 0 0 0 2.4308588,0.13281074 Z m 0.3209107,0.0578776 c -0.00391,0.0229303 -0.00109,0.0167403 -0.00207,0.0289388 l -0.00207,0.0258382 a 0.21906833,0.21906833 0 0 1 -0.00672,0.0242879 c -0.00195,0.008298 -0.00485,0.0165085 -0.00827,0.0248047 l -0.010852,0.0227376 c -0.0034,0.003911 -0.00485,0.008511 -0.00827,0.0124023 l -0.00568,0.008785 a 0.34982626,0.34982626 0 0 1 -0.015503,0.0201538 c -0.00634,0.005862 -0.010778,0.0132004 -0.018087,0.0180868 v 0.001034 c -0.00585,0.004886 -0.011802,0.0111515 -0.01912,0.0160197 -0.02098,0.0160985 -0.04574,0.0282837 -0.067696,0.0434082 -0.00731,0.004886 -0.014303,0.00962 -0.020154,0.0149862 a 0.14734662,0.14734662 0 0 0 -0.01912,0.0165364 c -0.00682,0.005845 -0.012225,0.012311 -0.018087,0.019637 -0.00489,0.005845 -0.011095,0.0122917 -0.014986,0.0191203 a 0.25712472,0.25712472 0 0 0 -0.014469,0.0217041 l -0.010852,0.0227376 c -0.00292,0.008298 -0.00582,0.0154736 -0.00775,0.0237712 a 0.32640693,0.32640693 0 0 0 -0.00775,0.0253214 l -0.00155,0.0124023 -0.00207,0.0124024 -0.00103,0.0253214 c 0,0.005862 6.37e-5,0.0122232 0.00103,0.0180868 a 0.20638286,0.20638286 0 0 0 0.00827,0.0490926 l 0.00775,0.0242879 c 0.00195,0.004886 0.00481,0.0100813 0.00723,0.0144694 L 2.2618769,0.66714504 A 2.4917192,2.4917192 0 0 0 2.1445714,0.63665595 L 2.0810094,0.62166978 A 1.8715949,1.8715949 0 0 0 1.8980748,0.59428127 l -0.00465,-0.001034 a 1.8023127,1.8023127 0 0 0 -0.497644,0.0180867 2.0247962,2.0247962 0 0 0 -0.1364258,0.028422 l -0.044442,0.0124024 c -0.015121,0.005862 -0.029259,0.0127713 -0.043408,0.0191203 l -0.03359,0.0149862 c -0.00195,9.7538e-4 -0.00367,0.001091 -0.00465,0.002067 -0.010248,0.004886 -0.019639,0.009104 -0.028422,0.0144694 a 0.44545519,0.44545519 0 0 0 -0.038757,0.0196371 c -0.00682,0.002435 -0.013777,0.006409 -0.019637,0.009819 a 0.0907499,0.0907499 0 0 1 -0.0093,0.004651 l -0.026355,0.0144694 a 0.25370942,0.25370942 0 0 0 -0.024288,0.0160197 c -0.00682,0.004886 -0.013786,0.008549 -0.019637,0.0134359 -9.754e-4,0.001468 -0.00265,0.001617 -0.00362,0.002584 a 0.23272959,0.23272959 0 0 0 -0.01912,0.0134359 l -0.00155,0.002584 -0.015503,0.0118856 -0.00568,0.004134 -0.014986,0.0134359 c -9.754e-4,0.001951 -0.00367,0.002641 -0.00465,0.003617 l -0.018087,0.0170532 c -9.753e-4,0 -5.746e-4,0.001088 -0.00155,0.002067 a 0.28298358,0.28298358 0 0 0 -0.018087,0.0170532 c -9.754e-4,9.7537e-4 -0.00109,0.002067 -0.00207,0.002067 l -0.014986,0.0160197 -0.00775,0.006201 c -0.00489,0.00585 -0.01071,0.0122237 -0.017053,0.0180868 l -0.00362,0.005168 -0.023254,0.0242879 -0.0031,0.002584 a 0.59524131,0.59524131 0 0 1 -0.05116,0.0496094 0.76210404,0.76210404 0 0 1 -0.1173055,0.0826823 0.72599925,0.72599925 0 0 1 -0.1286743,0.054777 c -0.042448,0.00877 -0.08591,0.026039 -0.1229899,0.029456 -0.0083,0 -0.017027,0.00111 -0.025321,0.00207 l -0.025321,0.00672 -0.024288,0.00879 -0.024288,0.010852 -0.021704,0.014469 a 0.16442322,0.16442322 0 0 0 -0.020671,0.017053 c -0.00682,0.00489 -0.014265,0.012224 -0.019637,0.018087 -0.00634,0.00732 -0.012684,0.012829 -0.01757,0.020154 -0.00489,0.00779 -0.011095,0.014966 -0.014986,0.023254 a 0.17759658,0.17759658 0 0 0 -0.013953,0.023254 l -0.011369,0.025838 a 0.77674112,0.77674112 0 0 0 -0.00879,0.026355 c -0.00195,0.00829 -0.00415,0.015991 -0.00465,0.024288 l -0.00155,0.0031 c -0.00195,0.00928 -0.00212,0.021046 -0.0031,0.027389 -9.753e-4,0.00682 -0.00207,0.013316 -0.00207,0.020154 0,0.00391 5.81e-5,0.00903 0.00103,0.012919 a 0.1073386,0.1073386 0 0 0 0.011369,0.037207 v 0.00103 c 0.00293,0.00634 0.00696,0.012255 0.011369,0.018603 l 0.012402,0.01757 a 0.26737068,0.26737068 0 0 0 0.03669,0.032556 c 0.024395,0.02098 0.030269,0.028312 0.061495,0.043925 0.00489,0.0034 0.00968,0.00533 0.01602,0.00827 l 0.0031,0.00103 a 0.20687075,0.20687075 0 0 0 0.013953,0.053744 l 0.00775,0.01757 0.00362,0.00517 a 0.44203986,0.44203986 0 0 0 0.011369,0.022221 l 0.015503,0.021187 a 0.29274164,0.29274164 0 0 0 0.01757,0.019637 l 0.01912,0.017053 0.00155,0.00103 a 0.22101994,0.22101994 0 0 0 0.083716,0.044958 l 0.00413,0.00207 0.013436,0.0031 c -0.00341,0.054645 -0.00468,0.1059702 0.00362,0.1240234 0.00878,0.020004 0.053756,-0.041392 0.097668,-0.1121378 -0.00584,0.069768 -0.00975,0.1507883 0,0.1751831 0.01123,0.02537 0.071819,-0.053682 0.1240235,-0.1400432 A 1.1651116,1.1651116 0 0 1 2.1202835,2.7610741 V 2.0474226 H 4.0230092 C 3.9555592,1.5087791 3.6538492,1.07301 3.4886752,0.90899075 c -9.7e-4,-0.001954 -0.0021,-0.002697 -0.0021,-0.004651 l -5.17e-4,0.002067 c 0,-9.7548e-4 -8e-5,-0.001089 -0.0015,-0.002067 0,0.0117095 -0.0011,0.0244639 -0.0021,0.0361735 a 1.3563696,1.3563696 0 0 1 -0.0098,0.0671793 c -0.0049,0.022444 -0.01121,0.044219 -0.01705,0.066663 a 0.83821684,0.83821684 0 0 1 -0.05478,0.1260905 0.68696703,0.68696703 0 0 1 -0.07803,0.1121379 c -0.01464,0.017574 -0.03041,0.034025 -0.04651,0.050126 l -0.02946,0.025322 -0.02325,0.020154 a 0.6986767,0.6986767 0 0 1 -0.116272,0.073381 0.70989846,0.70989846 0 0 1 -0.1968871,0.064079 c -0.02293,0.00439 -0.04577,0.0063 -0.068213,0.00827 A 0.75771291,0.75771291 0 0 1 2.5889887,1.5249738 0.74844278,0.74844278 0 0 0 2.787943,1.4810489 0.70550734,0.70550734 0 0 0 2.9119664,1.4195539 c 0.019516,-0.013664 0.038303,-0.026161 0.056844,-0.040308 a 0.55133007,0.55133007 0 0 0 0.05116,-0.045475 c 0.01708,-0.015121 0.03242,-0.032561 0.04754,-0.050126 0.01512,-0.018053 0.0292,-0.035689 0.04237,-0.053743 l 0.0057,-0.00982 c 0.01025,-0.016596 0.02067,-0.032991 0.02946,-0.049093 a 0.69477347,0.69477347 0 0 0 0.05426,-0.1255738 c 0.0068,-0.021469 0.01217,-0.04419 0.01705,-0.0661458 0.0039,-0.0229302 0.0078,-0.0452239 0.0098,-0.0671794 0.0024,-0.0229301 0.0047,-0.0462562 0.0047,-0.0682129 0,-0.0165961 -0.0011,-0.0329915 -0.0021,-0.0490926 A 0.73087829,0.73087829 0 0 0 3.2054902,0.6599089 L 3.1832702,0.5953134 A 0.69623718,0.69623718 0 0 0 3.1548502,0.5327849 L 3.1207402,0.473357 A 1.1129061,1.1129061 0 0 0 3.0804302,0.41858 0.63037031,0.63037031 0 0 0 3.0075702,0.3415821 1.855982,1.855982 0 0 0 2.8675269,0.2428801 0.18784255,0.18784255 0 0 0 2.8478899,0.2330611 0.39324958,0.39324958 0 0 0 2.7517719,0.19068643 Z m -1.4805298,2.42000736 -0.014986,0.00103 a 0.07855234,0.07855234 0 0 0 -0.022738,0.0031 c -0.00682,9.696e-4 -0.013835,0.00217 -0.020671,0.00413 a 0.17369337,0.17369337 0 0 0 -0.021704,0.00672 l -0.019637,0.0093 c -0.00585,0.00292 -0.012311,0.00688 -0.019637,0.00982 -0.23419297,0.1536898 -0.094405,0.5120598 0.065629,0.6159831 -0.060499,0.011229 -0.1219338,0.024522 -0.1390096,0.037207 l -0.00207,0.00207 c 0.043423,0.026347 0.089098,0.048669 0.1364258,0.067696 0.064403,0.02098 0.1325312,0.039764 0.1627808,0.048059 v 0.00103 c 0.083919,0.017076 0.1683768,0.023453 0.254248,0.018087 A 0.95872883,0.95872883 0 0 0 2.1202835,3.2561343 V 2.8298037 C 2.0785069,2.7568997 1.9805793,2.7193295 1.930631,2.7316185 1.9003813,2.806267 1.8482395,2.9020255 1.7657832,2.9610619 A 0.6464711,0.6464711 0 0 0 1.7559646,2.7600405 C 1.7335213,2.8527423 1.6904321,2.9390946 1.6309077,3.0132551 A 0.28151987,0.28151987 0 0 1 1.389062,2.9052513 c -0.00391,-0.0034 -0.00537,-0.01003 -0.00827,-0.013436 -0.00292,-0.00731 -0.0063,-0.01436 -0.00827,-0.021187 a 0.08391926,0.08391926 0 0 1 -0.00568,-0.021187 c -9.697e-4,-0.00731 -0.00103,-0.013922 -0.00103,-0.022221 v -0.014986 a 0.17369337,0.17369337 0 0 1 0.012402,-0.042375 c 0.00391,-0.00731 0.00648,-0.01436 0.011369,-0.021187 C 1.406659,2.7003683 1.40685,2.6604993 1.37563,2.637568 A 0.11465713,0.11465713 0 0 0 1.35651,2.628268 L 1.343591,2.623618 1.335841,2.620518 C 1.328521,2.618568 1.320964,2.616848 1.314137,2.615868 A 0.07660072,0.07660072 0 0 0 1.293467,2.612248 0.16442322,0.16442322 0 0 0 1.271246,2.610698 Z m 0.8490438,1.0071736 -0.0062,0.00465 a 0.42349955,0.42349955 0 0 1 -0.022738,0.015503 l 0.0031,0.00568 h 0.00155 l 0.024288,-0.0031 z m 0,0.3172933 c -0.051645,0.031329 -0.1053556,0.06015 -0.1607137,0.085783 a 1.6588692,1.6588692 0 0 0 0.1607137,-0.019637 z" /><g
     id="g21493"
     transform="translate(0.01550243,-0.03307061)"><g
       style="fill:none"
       id="g18137"
       transform="matrix(0.1535016,0,0,0.15578594,2.0698437,2.0317489)"><path
         d="M 14,4 C 14,2.89543 13.1046,2 12,2 H 4 C 2.89543,2 2,2.89543 2,4 v 8 c 0,1.1046 0.89543,2 2,2 h 8 c 1.1046,0 2,-0.8954 2,-2 z"
         fill="#548af7"
         id="path18131" /><path
         d="m 3.13501,6 h 4.7367 V 7 H 6 v 5 H 5 V 7 H 3.13501 Z"
         fill="#ffffff"
         id="path18133" /><path
         d="m 10.6836,12.1026 c -0.4247,0 -0.80086,-0.0769 -1.12861,-0.2308 C 9.22724,11.715 8.97074,11.4984 8.78549,11.222 8.60024,10.9427 8.50619,10.6235 8.50334,10.2644 h 1.01318 c 0,0.1881 0.04987,0.3562 0.14962,0.5044 0.09975,0.1482 0.23798,0.2636 0.41466,0.3463 0.1796,0.0798 0.3848,0.1197 0.6156,0.1197 0.2252,0 0.4232,-0.0371 0.5942,-0.1112 0.171,-0.0741 0.3021,-0.1781 0.3933,-0.312 0.0941,-0.1368 0.1411,-0.2936 0.1411,-0.4703 0,-0.2223 -0.067,-0.41324 -0.2009,-0.57284 -0.134,-0.16245 -0.3121,-0.2622 -0.5344,-0.29925 l -1.0132,-0.171 C 9.78584,9.24691 9.53362,9.14431 9.31987,8.99041 9.10612,8.83651 8.94082,8.64414 8.82397,8.41329 c -0.114,-0.2337 -0.171,-0.48878 -0.171,-0.76523 0,-0.3306 0.0855,-0.627 0.2565,-0.8892 C 9.08332,6.49381 9.32414,6.28719 9.63194,6.13899 9.93974,5.98794 10.2874,5.91241 10.675,5.91241 c 0.3962,0 0.7482,0.07268 1.056,0.21803 0.3106,0.14535 0.5529,0.3477 0.7267,0.60705 0.1739,0.25935 0.2622,0.55575 0.2651,0.8892 h -1.0132 c 0,-0.16245 -0.0428,-0.3078 -0.1283,-0.43605 -0.0855,-0.1311 -0.2052,-0.23228 -0.3591,-0.30353 -0.1539,-0.07125 -0.332,-0.10687 -0.5343,-0.10687 -0.2024,0 -0.3805,0.0342 -0.5344,0.1026 -0.15391,0.0684 -0.27361,0.1653 -0.35911,0.2907 -0.0855,0.1254 -0.12825,0.27075 -0.12825,0.43605 0,0.1938 0.0627,0.36195 0.1881,0.50445 0.1254,0.13965 0.28926,0.22657 0.49166,0.26077 l 0.996,0.16245 c 0.2936,0.0513 0.5544,0.16103 0.7824,0.32918 0.2308,0.16815 0.4089,0.37762 0.5343,0.62842 0.1254,0.2508 0.1881,0.51724 0.1881,0.79944 0,0.342 -0.0912,0.6512 -0.2736,0.9277 -0.1824,0.2736 -0.4374,0.4887 -0.7652,0.6455 -0.3277,0.1567 -0.7025,0.2351 -1.1243,0.2351 z"
         fill="#ffffff"
         id="path18135" /></g></g></svg>
