<?xml version="1.0" encoding="UTF-8" standalone="no"?>
<svg
   id="svg8"
   version="1.1"
   viewBox="0 0 4.2164402 4.2126633"
   height="15.921876"
   width="15.936152"
   xml:space="preserve"
   xmlns="http://www.w3.org/2000/svg"
   xmlns:svg="http://www.w3.org/2000/svg"
   xmlns:rdf="http://www.w3.org/1999/02/22-rdf-syntax-ns#"
   xmlns:cc="http://creativecommons.org/ns#"
   xmlns:dc="http://purl.org/dc/elements/1.1/"><defs
     id="defs2"><clipPath
       id="clip0_5092_57153-0"><rect
         width="9"
         height="6"
         fill="#ffffff"
         transform="translate(7,10)"
         id="rect11523-4"
         x="0"
         y="0" /></clipPath></defs><metadata
     id="metadata5"><rdf:RDF><cc:Work
         rdf:about=""><dc:format>image/svg+xml</dc:format><dc:type
           rdf:resource="http://purl.org/dc/dcmitype/StillImage" /><dc:title /></cc:Work></rdf:RDF></metadata><g
     clip-path="url(#clip0_5092_57153-0)"
     id="g57462"
     transform="matrix(0.26458333,0,0,0.26458333,0.030534,-0.03823088)"
     style="fill:none"><path
       fill-rule="evenodd"
       clip-rule="evenodd"
       d="m 15.3798,12.7117 c 0.1637,0.1574 0.1638,0.4193 10e-5,0.5767 l -2.7025,2.5992 C 12.4232,16.132 12,15.9519 12,15.5993 v -5.1955 c 0,-0.3525 0.423,-0.53262 0.6772,-0.2884 z"
       fill="#55a76a"
       id="path57458" /><path
       fill-rule="evenodd"
       clip-rule="evenodd"
       d="M 7.62255,13.2883 C 7.45909,13.1309 7.45916,12.8692 7.62271,12.7119 l 2.69889,-2.5956 c 0.2541,-0.24445 0.6773,-0.0644 0.6773,0.2882 v 5.1941 c 0,0.3528 -0.4234,0.5328 -0.6775,0.2882 z"
       fill="#e55765"
       id="path57460" /></g><path
     id="path57464"
     style="color:#000000;font-variation-settings:normal;opacity:1;vector-effect:none;fill:#f2c0a6;fill-opacity:0.75;stroke:none;stroke-width:0.265834;stroke-linecap:square;stroke-linejoin:round;stroke-miterlimit:4;stroke-dasharray:none;stroke-dashoffset:0;stroke-opacity:1;-inkscape-stroke:none;paint-order:stroke markers fill;stop-color:#000000;stop-opacity:1"
     d="m 2.460071,0.17038112 a 0.24643456,0.24643456 0 0 0 -0.07779,0.01456 c 0.05104,0.03402 0.07924,0.07897 0.09285,0.13049 0.0015,0.0068 0.0035,0.01178 0.0045,0.01907 a 0.11033658,0.11033658 0 0 1 0.002,0.01807 c 0.0039,0.08846 -0.0232,0.09907 -0.04216,0.151568 a 0.21435432,0.21435432 0 0 0 0.01405,0.197742 0.12005785,0.12005785 0 0 0 0.01205,0.02208 c -0.0384,-0.253724 0.173422,-0.291679 0.212794,-0.371393 0.0029,-0.06951 -0.05417,-0.115976 -0.09937,-0.148055 a 0.22164529,0.22164529 0 0 0 -0.118946,-0.03413 z m 0.319699,0.05772 c -0.0039,0.02284 -10e-4,0.01696 -0.002,0.02911 l -0.002,0.0256 a 0.21824284,0.21824284 0 0 1 -0.007,0.02459 c -0.0019,0.0083 -0.0046,0.01582 -0.008,0.02409 l -0.01105,0.02309 c -0.0034,0.0039 -0.0046,0.0082 -0.008,0.01205 l -0.006,0.0085 a 0.34850805,0.34850805 0 0 1 -0.01506,0.02058 c -0.0063,0.0058 -0.01079,0.0132 -0.01807,0.01807 v 0.001 c -0.0058,0.0049 -0.01178,0.01121 -0.01907,0.01606 -0.0209,0.01604 -0.04538,0.02809 -0.06725,0.04316 -0.0073,0.0049 -0.01475,0.0092 -0.02058,0.01456 a 0.14679141,0.14679141 0 0 0 -0.01857,0.01656 c -0.0068,0.0058 -0.01223,0.01228 -0.01807,0.01957 -0.0049,0.0058 -0.01118,0.01227 -0.01506,0.01907 a 0.25615583,0.25615583 0 0 0 -0.01405,0.02158 l -0.01154,0.02258 c -0.0029,0.0083 -0.0056,0.01532 -0.0075,0.02359 a 0.32517696,0.32517696 0 0 0 -0.0075,0.02509 l -0.0015,0.01255 -0.002,0.01255 -10e-4,0.02509 c 0,0.0058 3.3e-5,0.01223 10e-4,0.01807 a 0.20560517,0.20560517 0 0 0 0.008,0.04918 l 0.008,0.02409 c 0.002,0.0049 0.0046,0.0097 0.007,0.01405 l -0.231352,-0.08933 a 2.48233,2.48233 0 0 0 -0.116437,-0.03011 l -0.06324,-0.01506 a 1.8645424,1.8645424 0 0 0 -0.182183,-0.0271 l -0.005,-0.001 a 1.7955212,1.7955212 0 0 0 -0.49586,0.01807 2.0171664,2.0171664 0 0 0 -0.135508,0.02811 l -0.04467,0.01204 c -0.01506,0.0058 -0.02907,0.01325 -0.04316,0.01957 l -0.03313,0.01455 c -0.0019,9.72e-4 -0.004,0.001 -0.005,0.002 -0.01021,0.0049 -0.01936,0.0092 -0.02811,0.01456 a 0.44377663,0.44377663 0 0 0 -0.03864,0.01907 c -0.0068,0.0024 -0.01374,0.0066 -0.01957,0.01004 a 0.09040795,0.09040795 0 0 1 -0.0095,0.0045 l -0.0261,0.01456 a 0.25275339,0.25275339 0 0 0 -0.02409,0.01556 c -0.0068,0.0049 -0.01374,0.0092 -0.01957,0.01405 -9.74e-4,0.0015 -0.0025,0.001 -0.0035,0.002 a 0.23185264,0.23185264 0 0 0 -0.01907,0.01405 l -0.002,0.002 -0.01506,0.01205 -0.0055,0.004 -0.01506,0.01305 c -9.74e-4,0.002 -0.0035,0.003 -0.0045,0.004 l -0.01807,0.01706 c -9.74e-4,0 -0.001,10e-4 -0.002,0.002 a 0.28191724,0.28191724 0 0 0 -0.01807,0.01706 c -4.87e-4,4.87e-4 -0.0013,0.0016 -0.0015,0.002 l -0.01506,0.01606 -0.0075,0.006 c -0.0049,0.0058 -0.01074,0.01223 -0.01706,0.01807 l -0.004,0.005 -0.02309,0.02409 -0.003,0.003 a 0.59299834,0.59299834 0 0 1 -0.05119,0.04918 0.7592323,0.7592323 0 0 1 -0.116437,0.08281 0.72326356,0.72326356 0 0 1 -0.128482,0.0542 c -0.04229,0.0087 -0.08552,0.02571 -0.122459,0.02911 -0.0083,0 -0.01683,0.0015 -0.02509,0.0025 l -0.0256,0.0065 -0.02409,0.0085 -0.02359,0.01104 -0.02208,0.01405 a 0.16380364,0.16380364 0 0 0 -0.02058,0.01706 c -0.0068,0.0049 -0.01372,0.01223 -0.01907,0.01807 -0.0063,0.0073 -0.0127,0.01328 -0.01757,0.02058 -0.0049,0.0078 -0.01118,0.01433 -0.01506,0.02258 a 0.17692737,0.17692737 0 0 0 -0.01405,0.02359 l -0.01154,0.0256 a 0.77381423,0.77381423 0 0 0 -0.0085,0.0261 c -0.0019,0.0083 -0.0045,0.01633 -0.005,0.02459 l -0.0015,0.003 c -0.0019,0.0092 -0.002,0.02078 -0.003,0.0271 -9.74e-4,0.0068 -0.0015,0.01326 -0.0015,0.02008 0,0.0039 3.1e-5,0.0092 0.001,0.01305 a 0.10693412,0.10693412 0 0 0 0.01104,0.03664 v 0.001 c 0.0029,0.0063 0.0067,0.01224 0.01104,0.01857 l 0.01255,0.01807 a 0.26636318,0.26636318 0 0 0 0.03664,0.03212 c 0.0243,0.0209 0.03012,0.02811 0.06123,0.04366 0.0049,0.0034 0.0097,0.0051 0.01606,0.008 l 0.003,0.001 a 0.20609123,0.20609123 0 0 0 0.01405,0.0537 l 0.0075,0.01807 0.0035,0.0045 a 0.44037419,0.44037419 0 0 0 0.01154,0.02258 l 0.01506,0.02108 a 0.29163853,0.29163853 0 0 0 0.01757,0.01907 l 0.01907,0.01706 0.002,0.001 a 0.22018709,0.22018709 0 0 0 0.08281,0.04517 l 0.0045,0.002 0.01305,0.003 c -0.0034,0.05444 -0.0043,0.105478 0.004,0.123463 0.0087,0.01993 0.05362,-0.04144 0.09736,-0.111919 -0.0058,0.0695 -0.0097,0.150853 0,0.175156 0.01119,0.02528 0.07146,-0.05349 0.123463,-0.139523 A 1.1607214,1.1607214 0 0 1 2.167742,2.902802 C 2.148352,2.8007361 2.020797,2.7446661 1.961468,2.7592631 1.931338,2.8336331 1.879998,2.929308 1.797855,2.988122 A 0.64403508,0.64403508 0 0 0 1.788355,2.7873691 C 1.765995,2.8797191 1.722685,2.965935 1.663386,3.039815 A 0.28045905,0.28045905 0 0 1 1.421981,2.931911 c -0.0039,-0.0034 -0.0046,-0.0096 -0.0075,-0.01305 -0.0029,-0.0073 -0.0061,-0.01428 -0.008,-0.02108 a 0.08360304,0.08360304 0 0 1 -0.006,-0.02108 c -9.71e-4,-0.0073 -0.001,-0.01431 -0.001,-0.02258 v -0.01455 a 0.17303887,0.17303887 0 0 1 0.01205,-0.04216 c 0.0039,-0.0073 0.0067,-0.01428 0.01154,-0.02108 0.01701,-0.04812 0.01705,-0.08757 -0.01405,-0.110415 a 0.11422509,0.11422509 0 0 0 -0.01857,-0.01004 l -0.01355,-0.004 -0.0075,-0.003 c -0.0073,-0.002 -0.01478,-0.004 -0.02158,-0.005 a 0.07631207,0.07631207 0 0 0 -0.02058,-0.0035 0.16380364,0.16380364 0 0 0 -0.02208,-0.002 l -0.01506,9.99e-4 a 0.07825634,0.07825634 0 0 0 -0.02208,0.0035 c -0.0068,9.72e-4 -0.01427,0.0021 -0.02108,0.004 a 0.17303887,0.17303887 0 0 0 -0.02158,0.0065 l -0.01958,0.0095 c -0.0058,0.0029 -0.01227,0.0066 -0.01957,0.0095 -0.233309,0.153111 -0.09368,0.510271 0.06575,0.613803 -0.06027,0.01119 -0.121508,0.0245 -0.138519,0.03714 l -0.002,0.002 c 0.04326,0.02625 0.08836,0.0488 0.135508,0.06775 0.06416,0.0209 0.131973,0.03941 0.162108,0.04768 v 10e-4 c 0.0836,0.01701 0.167903,0.02341 0.253451,0.01807 a 0.95511619,0.95511619 0 0 0 0.225849,-0.04468 c -0.04875,-0.05326 -0.04678,-0.136425 0.006,-0.187199 l 0.906403,-0.87127 c 0.0034,-0.0032 0.007,-0.0057 0.01054,-0.0085 v -4.97e-4 c 0.02213,-0.02213 0.05241,-0.03563 0.08632,-0.03563 h 0.06474 c 0.05689,0 0.104576,0.03842 0.118445,0.09084 0.01545,-0.0499 0.06183,-0.08582 0.116938,-0.08582 h 0.01104 c 0.04464,-0.01615 0.0976,-0.0097 0.138018,0.02911 L 3.937015,2.913303 C 4.302844,2.026495 3.758953,1.186228 3.51443,0.94341502 c -9.71e-4,-0.002 -0.002,-0.0026 -0.002,-0.0045 l -0.001,0.002 c 0,-9.71e-4 -4.9e-5,-0.001 -0.0015,-0.002 0,0.01167 -0.001,0.02397 -0.002,0.03563 a 1.3512585,1.3512585 0 0 1 -0.0095,0.06725 c -0.0049,0.02236 -0.01124,0.04439 -0.01706,0.06675 A 0.83505832,0.83505832 0 0 1 3.42717,1.233513 0.68437842,0.68437842 0 0 1 3.34938,1.345433 C 3.33479,1.362943 3.31874,1.379583 3.3027,1.395623 L 3.27359,1.420213 3.25,1.440793 a 0.69604395,0.69604395 0 0 1 -0.115433,0.07277 0.70722344,0.70722344 0 0 1 -0.196236,0.06424 c -0.02284,0.0044 -0.04539,0.0066 -0.06775,0.0085 A 0.75485772,0.75485772 0 0 1 2.618138,1.557183 0.7456225,0.7456225 0 0 0 2.816382,1.513023 0.70284886,0.70284886 0 0 0 2.939845,1.451793 c 0.01944,-0.01361 0.03824,-0.02606 0.05671,-0.04015 a 0.54925256,0.54925256 0 0 0 0.05069,-0.04517 c 0.01701,-0.01506 0.03211,-0.03219 0.04718,-0.04969 0.01506,-0.01798 0.02903,-0.03572 0.04216,-0.0537 l 0.006,-0.01004 c 0.01021,-0.01653 0.02036,-0.03264 0.02911,-0.04868 a 0.69215544,0.69215544 0 0 0 0.0547,-0.124969 c 0.0068,-0.02139 0.01169,-0.04387 0.01656,-0.06575 0.0039,-0.02284 0.0081,-0.04538 0.01004,-0.06725 0.0024,-0.02284 0.0045,-0.04588 0.0045,-0.06775 0,-0.01653 -10e-4,-0.03264 -0.002,-0.04868 A 0.72812419,0.72812419 0 0 0 3.231905,0.694959 l -0.02158,-0.06374 a 0.69361363,0.69361363 0 0 0 -0.02861,-0.06223 l -0.03363,-0.05972 a 1.1087125,1.1087125 0 0 0 -0.04065,-0.0547 0.62799496,0.62799496 0 0 0 -0.07227,-0.07629 1.8489883,1.8489883 0 0 0 -0.139523,-0.09887 0.18713471,0.18713471 0 0 0 -0.02007,-0.0095 0.39176775,0.39176775 0 0 0 -0.09536,-0.04216 z M 2.134852,3.653448 a 0.42190374,0.42190374 0 0 1 -0.01305,0.009 l 0.003,0.006 h 0.0015 l 0.02108,-0.003 z M 2.325065,3.836635 C 2.223306,3.918415 2.11133,3.988107 1.990811,4.043912 A 1.6526183,1.6526183 0 0 0 2.333095,3.984692 1.6040119,1.6040119 0 0 0 2.441,3.948052 Z" /><path
     id="path57466"
     style="color:#000000;opacity:0.839806;fill:#e0234e;stroke:none;stroke-width:1.00012;stroke-dasharray:none"
     d="m 3.635083,0.83022012 0.0098,0.01395 c -4.77e-4,-0.0011 -0.0021,-0.0062 -0.0021,-0.0062 -3.1e-5,-4.2e-5 -0.0043,-0.0043 -0.0078,-0.0078 z" /><path
     id="path57468"
     style="color:#000000;font-variation-settings:normal;opacity:1;fill:#b24f1a;fill-opacity:1;stroke:none;stroke-width:1;stroke-linecap:square;stroke-linejoin:round;stroke-miterlimit:4;stroke-dasharray:none;stroke-dashoffset:0;stroke-opacity:1;paint-order:stroke markers fill;stop-color:#000000;stop-opacity:1"
     d="M 2.469263,2.9712198e-4 C 2.429853,0.00101312 2.389113,0.00829712 2.351957,0.02148712 l -0.21084,0.07441 0.187586,0.125057 c 0.03017,0.02012 0.04022,0.03863 0.04858,0.07028 4.01e-4,0.0013 0.0024,0.0084 0.0021,0.0057 v 0.0021 0.0041 0.0015 c 0.0015,0.03383 -0.0011,0.03626 -0.0041,0.04341 -0.0028,0.0065 -0.01551,0.02985 -0.02894,0.06408 -0.02154,0.04959 0.0062,0.09995 0.0098,0.152445 l -0.02377,-0.0098 -0.0057,-0.0021 c -0.04094,-0.01164 -0.08157,-0.0234 -0.123003,-0.03307 h -0.0021 l -0.06615,-0.0155 h -0.0021 c -0.06507,-0.01303 -0.131374,-0.02285 -0.197404,-0.02946 h -0.0021 l -0.0036,-0.0021 c -0.180566,-0.01854 -0.362305,-0.01194 -0.541053,0.01964 -0.0494,0.0085 -0.09806,0.01964 -0.146761,0.03152 h -0.0016 l -0.05271,0.0155 -0.0062,0.0021 c -0.02281,0.0088 -0.03996,0.0164 -0.05064,0.02119 l -0.03307,0.01395 c -7.95e-4,2.92e-4 -0.0016,0.0019 -0.0021,0.0021 -3.55e-4,1.32e-4 -0.002,-1.8e-5 -0.0021,0 -3.5e-5,1.6e-5 -0.003,0.0011 -0.0036,0.0016 -0.01038,0.005 -0.02352,0.01208 -0.03927,0.0217 -0.01201,0.0058 -0.02563,0.01098 -0.03721,0.01757 l 0.0072,-0.0026 c -0.01149,0.0052 -0.0203,0.01064 -0.02687,0.01447 h -0.0016 l -0.0021,0.0016 -0.03152,0.01602 -0.0015,0.0016 c -0.01238,0.007 -0.02415,0.01338 -0.03566,0.0217 -2.64e-4,1.9e-4 -0.0044,0.0049 -0.0057,0.0057 0.0024,-0.0012 -0.0054,0.004 -0.0057,0.0041 -0.0019,0.0012 -0.0036,0.0017 -0.0062,0.0036 -0.0015,0.0011 -0.0015,0.0026 -0.0036,0.0041 -7.03e-4,5.54e-4 -0.0013,-5.94e-4 -0.0021,0 2.4e-5,-1.8e-5 -0.0018,0.0018 -0.0021,0.0021 -2.73e-4,2.98e-4 -0.001,0.0015 -0.0015,0.0021 -0.0015,0.001 -0.0027,0.0026 -0.0041,0.0036 l -0.0078,0.0041 c -0.0025,0.0019 -0.0053,0.0037 -0.0078,0.0057 l -0.0098,0.0078 h -0.0021 l -0.0036,0.0041 -0.0083,0.0057 -0.02687,0.02325 -0.0098,0.0078 v 0.0021 h -0.0021 l -0.0021,0.0041 -0.0036,0.0021 v 0.0015 h -0.0021 l -0.0041,0.0062 c 8.4e-5,-8.4e-5 -0.0016,0.0032 -0.0036,0.0057 -3.77e-4,4.6e-4 -0.0017,-4.94e-4 -0.0021,0 l -0.0021,0.0021 c -0.0031,0.0029 -0.0068,0.0047 -0.0098,0.0078 -6.61e-4,6.72e-4 -0.0014,0.0014 -0.0021,0.0021 -9.83e-4,0.0012 -0.0033,0.0028 -0.0057,0.0057 3.3e-5,-3.8e-5 -0.002,0.0028 -0.0041,0.0057 l -0.0036,0.0041 -0.01189,0.0098 -0.0057,0.0057 c -0.0024,0.0028 -0.0036,0.0058 -0.0057,0.0077 l -0.0083,0.0062 -0.0057,0.0077 -0.01964,0.02119 -0.0036,0.0041 c -0.01345,0.01458 -0.0278,0.02795 -0.04289,0.04082 l -0.0021,0.0021 c -0.0319,0.02745 -0.06532,0.05136 -0.101803,0.07235 -0.03198,0.01721 -0.06477,0.03142 -0.09922,0.04289 -9.21e-4,1.91e-4 -0.0012,-1.92e-4 -0.0021,0 -0.05088,0.01069 -0.08623,0.02435 -0.101802,0.02739 -0.0022,0 -0.0016,-4.8e-5 -0.0036,0 -8.05e-4,1.34e-4 -0.0056,0.002 -0.0062,0.0021 -0.0129,7.93e-4 -0.02543,0.0017 -0.02894,0.0021 h -0.0062 l -0.03876,0.0093 -0.03514,0.01395 -0.03721,0.01757 -0.03152,0.01964 c -0.01246,0.0088 -0.02426,0.01827 -0.03514,0.02894 -0.0099,0.0084 -0.01945,0.01736 -0.02532,0.02377 v 0.0021 h -0.0021 c -0.0016,0.0019 -0.01069,0.01114 -0.02532,0.03307 h -0.0015 v 0.0021 l -5.17e-4,-5.17e-4 c -0.0031,0.0024 -0.01285,0.0135 -0.02325,0.03566 -0.0042,0.0069 -0.0077,0.01392 -0.01137,0.02119 l -0.0021,0.0041 -0.01395,0.03307 -0.0021,0.0021 c -0.0036,0.01022 -0.0061,0.02066 -0.0093,0.03101 l -0.0021,0.0041 -0.0021,0.0036 c -2.87e-4,0.0012 -10e-4,0.01218 -0.0021,0.01602 l -0.0021,0.0015 -0.0015,0.01395 c -0.0014,0.0066 8.15e-4,0.0024 0,0.0078 -4.32e-4,0.0028 -0.0018,0.0018 -0.0021,0.0041 -7.9e-5,0.0011 6.7e-5,4.48e-4 0,0.0015 -0.0011,0.01 -0.0033,0.02792 -0.0021,0.01964 v 0.0021 C 0.002701,1.4149521 0,1.4281221 0,1.4458621 c 0,0.0025 6.58e-4,0.01574 0.0015,0.02532 7e-5,6.16e-4 -7.4e-5,0.0015 0,0.0021 0.0013,0.01076 0.007,0.02059 0.0098,0.03101 v 0.01757 l 0.01188,0.02325 c 5.14e-4,0.0011 0.0016,10e-4 0.0021,0.0021 2.79e-4,5.53e-4 -2.84e-4,0.0015 0,0.0021 0.0071,0.01419 0.01441,0.02422 0.01912,0.03101 l 0.01809,0.02584 0.0057,0.0057 c 0.01396,0.01475 0.02887,0.02845 0.04496,0.04082 0.0015,0.0013 0.0042,0.0028 0.0057,0.0041 7.4e-4,5.48e-4 0.0013,0.0015 0.0021,0.0021 0.01383,0.01188 0.03318,0.02411 0.05271,0.03669 0.0027,0.0083 0.0023,0.01774 0.0057,0.02584 l 0.01395,0.03101 0.0078,0.01189 0.0021,0.0015 c 0.0023,0.0044 0.0033,0.0096 0.0057,0.01395 l 0.0041,0.0057 0.02119,0.02946 0.0021,0.0021 c 0.0078,0.0095 0.01665,0.01859 0.02532,0.02739 l 0.0021,0.0036 0.02532,0.0217 0.0078,0.0077 0.0155,0.0078 c 0.01281,0.0069 0.02658,0.01265 0.03927,0.01964 2e-6,0.0038 -6.2e-5,0.0082 0,0.01189 4.65e-4,0.02774 -0.0043,0.04602 0.01757,0.09353 0.0039,0.0077 0.01157,0.02075 0.01189,0.02119 3.52e-4,4.81e-4 0.02283,0.02345 0.02325,0.02377 8.43e-4,6.48e-4 0.06504,0.02527 0.06615,0.02532 0.0044,0.0077 0.01154,0.01712 0.01189,0.01757 4.57e-4,6.08e-4 0.0227,0.02285 0.02325,0.02325 0.0011,8.15e-4 0.06728,0.02372 0.06873,0.02377 7.26e-4,2.6e-5 0.01941,-5.24e-4 0.02739,-0.0021 0.008,-0.0015 0.01324,-0.0035 0.01912,-0.0057 0.01177,-0.0044 0.02033,-0.0094 0.02739,-0.01395 0.02823,-0.01817 0.04159,-0.03253 0.05684,-0.05064 0.01715,-0.02037 0.03388,-0.04749 0.05064,-0.07235 0.520685,-0.109456 0.951797,0.210535 1.146719,0.67593 l -0.02946,0.0077 -0.02119,0.05271 c -0.0068,0.01687 -0.02431,0.02925 -0.03359,0.04703 L 1.66782,2.7816721 C 1.65445,2.8368921 1.62167,2.885322 1.59186,2.934117 1.55529,2.924817 1.51636,2.921497 1.49212,2.891227 c -3.2e-4,-5.09e-4 3.47e-4,-0.0015 0,-0.0021 l -0.0021,-0.0041 v -0.0021 c 2.6e-5,-7.9e-5 0,7.02e-4 0,-0.0057 2.32e-4,-0.0012 -2.97e-4,-0.0029 0,-0.0041 8.57e-4,-0.0034 0.0027,-0.0061 0.0041,-0.0093 -4.42e-4,6.1e-4 7.09e-4,-0.0031 0,-0.0021 l 0.0078,-0.01189 0.0057,-0.0155 C 1.51959,2.800467 1.52935,2.763357 1.52519,2.719099 1.52099,2.674849 1.49425,2.622009 1.45336,2.591975 l -0.0021,-0.0021 -0.0041,-0.0015 C 1.43506,2.580675 1.42327,2.574065 1.40995,2.568735 l -0.0036,-0.0021 -0.01395,-0.0036 -0.01137,-0.0062 h -0.0062 c -0.0076,-0.002 -0.01849,-0.0054 -0.03514,-0.0077 -0.0064,-0.0014 -0.01257,-0.0029 -0.01912,-0.0036 l -0.01189,-0.0021 c -0.0085,-9.72e-4 -0.01674,-0.0019 -0.02532,-0.0021 h -0.0062 l -0.01912,0.0021 c -0.01672,6.08e-4 -0.03308,0.0029 -0.04909,0.0077 -0.0063,10e-4 -0.0103,9.47e-4 -0.01964,0.0036 -0.01082,0.0029 -0.02265,0.0057 -0.03307,0.0098 l -0.0021,0.0021 -0.02532,0.01189 h -0.0021 c -0.0125,0.0063 -0.01496,0.0071 -0.01137,0.0057 l -0.0098,0.0057 -0.0098,0.0062 C 0.933444,2.702636 0.897303,2.89514 0.929869,3.049328 c 0.01798,0.08515 0.08245,0.135698 0.128674,0.203088 -0.01327,0.0046 -0.02199,0.002 -0.04289,0.01757 l -0.0057,0.0036 -0.109554,0.109554 0.120923,0.07441 c 0.05004,0.03036 0.102713,0.05637 0.15658,0.07803 l 0.0036,0.0021 0.0041,0.0015 c 0.03631,0.01183 0.0585,0.01828 0.08992,0.02739 v 0.0077 l 0.08165,0.01602 0.0077,0.0015 c 0.0952,0.01937 0.191206,0.02784 0.289388,0.0217 h 0.0021 C 1.72697,3.60839 1.792065,3.59352 1.85273,3.5706 L 1.738542,3.460541 c -0.002,-0.0019 -0.0043,-0.0042 -0.0062,-0.0062 -0.0019,-0.002 -0.0034,-0.0041 -0.0052,-0.0062 -0.0018,-0.0021 -0.0035,-0.004 -0.0052,-0.0062 -0.0017,-0.0022 -0.0037,-0.0045 -0.0052,-0.0067 -0.0015,-0.0022 -0.0027,-0.0044 -0.0041,-0.0067 -0.0014,-0.0023 -0.0029,-0.0049 -0.0041,-0.0072 -0.0013,-0.0023 -0.0025,-0.0043 -0.0036,-0.0067 -0.0011,-0.0024 -0.0021,-0.0048 -0.0031,-0.0072 -0.001,-0.0024 -0.0017,-0.0053 -0.0026,-0.0077 -8.86e-4,-0.0025 -0.0018,-0.0047 -0.0026,-0.0072 -7.59e-4,-0.0025 -0.0014,-0.0052 -0.0021,-0.0077 -3.36e-4,-0.0014 -7.34e-4,-0.0028 -10e-4,-0.0041 -0.01696,0.0039 -0.03451,0.0069 -0.05323,0.0083 -0.04033,0.0025 -0.0791,-0.0068 -0.118856,-0.0098 L 1.286837,3.227293 C 1.241797,3.198043 1.170645,3.098301 1.150411,3.002501 c -0.02007,-0.09502 -0.008,-0.166004 0.06821,-0.217041 6.25e-4,-4.19e-4 -6.34e-4,-0.0011 0,-0.0015 0.0019,-0.0011 0.01,-0.0042 0.0098,-0.0041 l 0.0098,-0.0036 0.0078,-0.0041 c 4.72e-4,-1.29e-4 0.0016,1.17e-4 0.0021,0 h 0.0015 10e-4 c 9.78e-4,-4.85e-4 0.0034,-0.0015 0.0072,-0.0021 h 0.0078 l 0.0036,-0.0021 c 0.0018,-2.26e-4 0.0044,5.42e-4 0.0062,0 h 0.01137 l 0.0021,0.0021 -0.0021,0.0041 c -0.0098,0.02272 -0.01744,0.04582 -0.02119,0.07028 v 0.0098 0.02325 c 0,0.0085 -6.55e-4,0.02062 0.0016,0.03721 v 0.0021 c 0.0024,0.01709 0.0072,0.03269 0.01395,0.04858 0.0028,0.0071 0.0069,0.01754 0.0078,0.01964 l 0.0041,0.01189 0.0016,0.0057 0.0077,0.0077 0.0041,0.0057 c 0.0022,0.004 0.0058,0.0068 0.0098,0.01189 0.08211,0.103385 0.208135,0.16162 0.340031,0.152445 l -0.0083,0.07235 0.205155,-0.146761 c 0.08242,-0.05901 0.113749,-0.135275 0.150379,-0.206706 0.0094,0.002 0.0071,0.0012 0.01757,0.0077 0.01376,0.0086 0.02325,0.01714 0.02946,0.02532 L 2.218509,2.7699933 C 2.059614,2.0736501 1.386707,1.6020141 0.671833,1.7757381 l -0.04703,0.0098 -0.02325,0.04134 c -8.84e-4,0.0015 -0.0012,0.0022 -0.0021,0.0036 l -0.01964,-0.0057 0.0041,-0.07803 -0.09612,-0.0217 h -0.0016 l -0.0062,-0.0021 c -0.01589,-0.0046 -0.0304,-0.01242 -0.04289,-0.02325 l -0.01188,-0.0098 h -0.0016 l -0.0021,-0.0021 -0.0057,-0.0057 c -5.77e-4,-6.36e-4 -0.0015,-0.0014 -0.0021,-0.0021 l -0.0041,-0.0057 -0.0036,-0.0041 -0.0021,-0.0036 -0.0057,-0.0078 c -8.89e-4,-0.0017 -0.0012,-0.0044 -0.0021,-0.0062 l -0.0041,-0.0077 -0.0021,-0.0036 -0.0016,-0.0062 v -0.0016 c -0.003,-0.0077 -0.0067,-0.01552 -0.0078,-0.02377 l -0.0083,-0.07235 -0.06201,-0.01912 -0.0021,-0.0021 -0.0078,-0.0041 c -0.02448,-0.01224 -0.01325,-0.0053 -0.04134,-0.02946 l -0.0021,-0.0016 -0.0036,-0.0041 c -0.008,-0.0058 -0.01494,-0.01249 -0.0217,-0.01964 l -0.0036,-0.0057 -0.0021,-0.0021 -0.0021,-0.0036 c 0,0.0026 0.0018,-0.0016 0.0021,-0.0041 v -0.0021 c 0.0016,-0.01058 0.002,-0.0076 0.0021,-0.0098 l 0.0021,-0.0057 0.0015,-0.01757 c 1.6e-4,-9.27e-4 4.79e-4,-0.0051 0.0021,-0.01188 0.0017,-0.0052 0.0039,-0.01031 0.0057,-0.0155 l 0.0062,-0.01344 0.0021,-0.0062 c 7.81e-4,-0.0013 6.89e-4,-0.0024 0.0016,-0.0036 l 0.0062,-0.0078 0.0057,-0.0098 c -0.0041,0.0087 0.0012,-7.25e-4 0.0057,-0.0078 l 0.0021,-0.0041 c -5.8e-5,3.62e-4 0.0017,10e-4 0.0057,-0.0036 l 0.0021,-0.0021 c 9.65e-4,-8.72e-4 0.0047,-0.0039 0.0021,-0.0021 l 0.0057,-0.0041 0.0062,-0.0057 c 0.0012,-0.0012 0.0023,-0.0025 0.0036,-0.0036 l 0.0041,-0.0021 0.01137,-0.0077 0.01395,-0.0062 0.01344,-0.0057 0.0083,-0.0021 c 0.0062,-7.25e-4 0.0094,-0.0018 0.01137,-0.0021 h 0.0062 l 0.0057,-0.0016 c 0.06419,-0.0059 0.10842,-0.02531 0.138493,-0.03152 l 0.0041,-0.0021 h 0.0057 c 0.05266,-0.01658 0.10394,-0.03774 0.152446,-0.0641 l 0.0021,-0.0021 c 0.04831,-0.02779 0.09412,-0.0614 0.136426,-0.09767 0.02121,-0.0181 0.04148,-0.03642 0.06046,-0.05684 l 0.0021,-0.0016 0.0021,-0.0021 0.02325,-0.02532 0.0041,-0.0041 0.0078,-0.0077 c 0.0013,-0.0014 0.0029,-0.0028 0.0041,-0.0041 l 0.01137,-0.01137 0.0041,-0.0062 0.01189,-0.01137 c 9.27e-4,-8.34e-4 8.36e-4,-0.0014 0.0016,-0.0021 h 0.0021 v -0.0021 c 6.53e-4,-6.74e-4 0.0014,-0.0014 0.0021,-0.0021 6.63e-4,-6.63e-4 0.0014,-8.97e-4 0.0021,-0.0016 -2.8e-5,1.9e-5 0.0045,-0.0033 0.0078,-0.0062 l 0.0021,-0.0021 0.0036,-0.0036 c 9.2e-5,-9.2e-5 0.0032,-0.0026 0.0057,-0.0057 l 0.0098,-0.0098 c -0.0034,0.0029 -0.0061,0.0045 -0.0078,0.0057 0.0031,-0.0038 0.0061,-0.0077 0.0062,-0.0078 l 0.0015,0.0021 c 0.0015,-0.0013 0.003,-0.0011 0.0041,-0.0021 l 0.0021,-0.0021 0.0016,-0.0021 0.0083,-0.0077 0.0036,-0.0021 0.01964,-0.0155 c 0.0015,-0.0012 0.0021,-0.0025 0.0036,-0.0036 0.0012,-6.98e-4 0.002,-0.0028 0.0041,-0.0041 l 0.0041,-0.0021 0.0077,-0.0036 v -0.0021 c 5.3e-5,-4e-5 0.0043,-0.0027 0.0057,-0.0041 -0.0046,0.0038 -0.0011,0.0015 0.01188,-0.0078 h 0.0021 c 0.0046,-0.0033 0.0085,-0.0071 0.01344,-0.0098 l 0.01757,-0.0098 0.0098,-0.0057 c 0.0033,-0.0017 0.0067,-0.0038 0.0098,-0.0057 h 0.0021 l 0.0093,-0.0041 0.0083,-0.0036 c 0.0097,-0.0055 0.02084,-0.01148 0.03101,-0.01602 l 0.0057,-0.0036 0.0062,-0.0041 c 0.0015,-9.42e-4 0.0082,-0.0031 0.01344,-0.0057 -0.0036,0.0013 -0.0092,0.0019 -0.0098,0.0021 -0.0012,3.38e-4 0.0072,-0.0016 0.01395,-0.0041 3.81e-4,-1.83e-4 -3.96e-4,-0.0019 0,-0.0021 8.56e-4,-3.22e-4 0.0013,2.88e-4 0.0021,0 5.81e-4,-4.08e-4 0.004,-4.19e-4 0.0057,-0.0016 l 0.01189,-0.0062 0.01757,-0.0078 h 0.0015 c 0.01309,-0.0059 0.01966,-0.0099 0.02739,-0.01344 l 0.0078,-0.0021 c 9.29e-4,-3.88e-4 0.0033,-0.0017 0.0041,-0.0021 l 0.03101,-0.0078 c 0.04369,-0.01066 0.08849,-0.01975 0.132808,-0.02739 0.158223,-0.02795 0.318692,-0.03398 0.478524,-0.01757 l 0.0062,0.0021 c 0.05801,0.0057 0.116449,0.01399 0.173633,0.02532 l 0.0646,0.0155 c 0.03851,0.009 0.07721,0.01864 0.115238,0.02946 l 0.5173,0.20101 -0.148311,-0.265616 -0.0021,-0.0057 -0.0057,-0.01757 v -0.0021 c -0.002,-0.0071 -0.0038,-0.01382 -0.0041,-0.02119 v -0.0083 l -0.0015,-0.0015 v -0.0021 -0.0021 l 0.0015,-0.0155 v -0.0062 -0.0036 l 0.0021,-0.0041 v -0.0057 c 7.83e-4,-0.0027 0.0032,-0.0051 0.0041,-0.0078 l 0.0021,-0.0041 v -0.0057 l 0.0057,-0.01189 0.0021,-0.0036 0.0036,-0.0077 c 0.0011,-0.0016 0.003,-0.0026 0.0041,-0.0041 l 0.0036,-0.0057 5.17e-4,-5.17e-4 c 7.27e-4,-0.0011 0.0037,-0.0045 0.0078,-0.0093 l 0.0015,-0.0021 c 0.002,-0.0025 0.0035,-0.003 0.0041,-0.0036 7.1e-4,-6.11e-4 0.0011,-0.0014 5.16e-4,-0.001 l 0.0031,-0.0031 0.0041,-0.0041 c 0.0015,-0.0016 0.0023,-0.0023 0.0041,-0.0036 l 0.0057,-0.0041 0.001,-0.001 h 5.17e-4 c 0.0014,-7.87e-4 0.0051,-0.0032 0.01034,-0.0067 v -0.0021 h 0.0015 c 0.01261,-0.0087 0.0372,-0.02133 0.06666,-0.04289 0.02199,-0.01462 0.03185,-0.02525 0.02946,-0.02325 l 0.04082,-0.03514 v -0.0098 c 0.005,-0.0065 0.01086,-0.01284 0.0155,-0.01964 l 0.0057,-0.0098 0.0098,-0.01137 0.01395,-0.03152 c 0.03748,0.0247 0.07352,0.05058 0.109037,0.07803 0.02231,0.01987 0.04385,0.04128 0.06253,0.0646 0.01239,0.01592 0.0237,0.03248 0.03514,0.04909 l 0.03152,0.05426 c 0.0079,0.01584 0.01468,0.03262 0.02119,0.04909 l 0.0217,0.06046 c 0.0096,0.03665 0.01463,0.07333 0.01757,0.111104 9.42e-4,0.01552 0.0021,0.0293 0.0021,0.04134 0,0.01586 -0.0018,0.03661 -0.0041,0.05839 v 0.0021 c -0.0014,0.01613 -0.0058,0.03674 -0.0098,0.06046 -0.0043,0.0189 -0.0087,0.03774 -0.01344,0.05271 -0.01203,0.0371 -0.02804,0.07341 -0.04703,0.107487 v 0.0021 c -0.0065,0.0119 -0.01636,0.02504 -0.02739,0.04289 v 0.0021 l -0.0016,0.0021 c -0.01195,0.01637 -0.02321,0.03187 -0.03721,0.04858 -0.01484,0.01724 -0.02649,0.02978 -0.03721,0.03927 l -0.0041,0.0015 -0.0015,0.0041 c -0.01324,0.01329 -0.02655,0.02567 -0.04134,0.03721 v -0.0021 c -0.01605,0.01224 -0.03413,0.02482 -0.05478,0.03927 -0.03241,0.01981 -0.06576,0.03718 -0.101285,0.05064 -0.05619,0.02074 -0.114443,0.03244 -0.17415,0.03721 l 0.0083,0.224276 c 0.0031,7.96e-4 0.0062,-7.62e-4 0.0093,0 0.08416,0.0204 0.171248,0.0362 0.257865,0.03152 h 0.0021 0.0021 c 0.02236,-0.0019 0.04789,-0.0042 0.07803,-0.0098 0.08094,-0.01392 0.161126,-0.03982 0.234611,-0.07648 0.04868,-0.02436 0.09345,-0.05444 0.136426,-0.08785 l 0.0021,-0.0016 0.02739,-0.0217 0.03307,-0.02946 0.0021,-0.0015 c 0.017,-0.017 0.0364,-0.03697 0.05478,-0.05891 v -0.0021 c 0.03489,-0.04096 0.06529,-0.08374 0.09147,-0.130741 l 0.0021,-0.0021 c 0.01075,-0.02007 0.01808,-0.04177 0.02739,-0.06253 0.125012,0.164513 0.272297,0.345109 0.353467,0.65629 0.06096,0.233723 -0.02994,0.509638 -0.122473,0.784965 L 4.086739,2.89396 C 4.236518,2.5047331 4.248743,2.1228461 4.164249,1.7989361 4.050352,1.3622871 3.821274,1.0495351 3.659887,0.87909612 c -7.31e-4,-0.0018 -5.54e-4,-0.0038 -0.0016,-0.0062 -0.0011,-0.0011 -0.0031,-0.0046 -0.0041,-0.0057 -0.0064,-0.0067 -0.01349,-0.0311 -0.01964,-0.03721 -0.0069,-0.0069 -0.01536,-0.0154 -0.0155,-0.0155 -2.11e-4,-1.58e-4 -0.0053,-0.0039 -0.0057,-0.0041 l -0.175708,-0.116789 v 0.210839 c 0,0.0058 -0.0011,0.01596 -0.0021,0.02739 l 0.0021,-0.0041 c -0.0023,0.01935 -0.0066,0.03918 -0.0098,0.05839 -0.0035,0.01593 -0.0084,0.03575 -0.01395,0.05684 -0.01314,0.03867 -0.0293,0.07561 -0.04858,0.111621 -0.01887,0.03352 -0.04166,0.06636 -0.06666,0.0956 v 0.0016 c -0.0076,0.0092 -0.01758,0.01931 -0.02739,0.02946 0.0092,-0.01478 0.0192,-0.02977 0.02946,-0.04858 0.02652,-0.04758 0.04795,-0.09697 0.0646,-0.148828 v -0.0016 c 0.0087,-0.02738 0.01385,-0.05279 0.01912,-0.07648 l 0.0021,-0.0021 v -0.0036 c 0.0039,-0.02275 0.0093,-0.04791 0.01189,-0.07596 v -0.0021 c 0.0026,-0.02476 0.0036,-0.0516 0.0036,-0.0801 0,-0.02143 -5.41e-4,-0.04029 -0.0015,-0.05684 v -0.0021 c -0.0042,-0.0539 -0.01321,-0.108023 -0.02739,-0.160191 l -0.0021,-0.0015 -0.02325,-0.07235 -0.0021,-0.0021 c -0.01,-0.02526 -0.02066,-0.05026 -0.03307,-0.07441 v -0.0036 l -0.03927,-0.06666 -0.0041,-0.0036 c -0.01457,-0.02117 -0.02859,-0.04229 -0.04444,-0.06253 -0.02655,-0.03315 -0.05665,-0.0658 -0.08837,-0.09405 l -0.0036,-0.0015 -0.0021,-0.0021 c -0.04902,-0.0382 -0.100098,-0.07398 -0.15244,-0.107487 l -0.0015,-0.0021 -0.0041,-0.0021 c -0.0053,-0.003 -0.01008,-0.0051 -0.0155,-0.0077 l -0.0155,-0.0078 c -0.0048,-0.0027 -0.0111,-0.0031 -0.01602,-0.0057 l 0.0078,-0.04909 -0.136426,0.0021 -0.0217,0.156579 c -0.01055,-0.02522 -0.01079,-0.05853 -0.02532,-0.07648 -0.03175,-0.03922 -0.06625,-0.0639 -0.09198,-0.08217 l -0.0036,-0.0016 -0.0021,-0.0021 c -0.04294,-0.02701 -0.09464,-0.0354 -0.144688,-0.04134 C 2.494075,0.00977012 2.482675,-3.987802e-5 2.468905,1.21979e-7 Z M 0.793396,0.78164412 c -0.0022,0.0029 -0.0041,0.0056 -0.0041,0.0057 h -0.0016 c 0.003,-0.0027 0.0038,-0.004 0.0057,-0.0057 z m 2.871142,0.115239 c 5.06e-4,0.002 0.0021,0.0079 0.0021,0.0078 h -0.0021 c -1.09e-4,-0.0016 2.76e-4,-0.004 0,-0.0078 z m -0.224792,0.0098 c 5.78e-4,0.0031 0.0063,0.02241 0.0098,0.03669 -0.0043,-0.01031 -0.0078,-0.02125 -0.0078,-0.02119 2.3e-5,1.56e-4 -0.0021,-0.01575 -0.0021,-0.0155 z" /></svg>
