<?xml version="1.0" encoding="UTF-8" standalone="no"?>
<svg
   id="svg8"
   version="1.1"
   viewBox="0 0 4.2166065 4.0436453"
   height="15.283069"
   width="15.936781"
   xml:space="preserve"
   xmlns="http://www.w3.org/2000/svg"
   xmlns:svg="http://www.w3.org/2000/svg"
   xmlns:rdf="http://www.w3.org/1999/02/22-rdf-syntax-ns#"
   xmlns:cc="http://creativecommons.org/ns#"
   xmlns:dc="http://purl.org/dc/elements/1.1/"><defs
     id="defs2"><clipPath
       id="clip0_5092_57153"><rect
         width="9"
         height="6"
         fill="#ffffff"
         transform="translate(7,10)"
         id="rect11523"
         x="0"
         y="0" /></clipPath></defs><metadata
     id="metadata5"><rdf:RDF><cc:Work
         rdf:about=""><dc:format>image/svg+xml</dc:format><dc:type
           rdf:resource="http://purl.org/dc/dcmitype/StillImage" /><dc:title /></cc:Work></rdf:RDF></metadata><g
     id="layer1"
     style="display:none"
     transform="translate(-0.00821267,-0.06099151)"><rect
       style="fill:none;fill-rule:evenodd;stroke:none;stroke-width:0.0661458"
       height="4.2333331"
       width="4.2333331"
       y="1.2080078e-05"
       x="7.3204038e-09"
       id="rect839" /><path
       style="fill:#d7e3f4;stroke:#e6e6e6;stroke-width:0.0107692;stroke-linecap:butt;stroke-linejoin:miter;stroke-miterlimit:4;stroke-dasharray:none;stroke-opacity:1"
       d="M 0.26458334,0.26458295 V 3.9687497 H 3.9687501 V 0.26458295 Z"
       id="path872" /><rect
       style="opacity:0.869;fill:none;fill-opacity:1;stroke:#000000;stroke-width:0.00264583;stroke-linecap:round;stroke-linejoin:miter;stroke-miterlimit:4;stroke-dasharray:none;stroke-dashoffset:0;stroke-opacity:1;paint-order:stroke fill markers"
       id="rect896"
       width="2.6458333"
       height="3.7041667"
       x="0.79374999"
       y="0.26458308" /><rect
       style="opacity:0.869;fill:none;fill-opacity:1;stroke:#000000;stroke-width:0.00264583;stroke-linecap:round;stroke-linejoin:miter;stroke-miterlimit:4;stroke-dasharray:none;stroke-dashoffset:0;stroke-opacity:1;paint-order:stroke fill markers"
       id="rect898"
       width="3.175"
       height="3.175"
       x="0.52916664"
       y="0.52916646" /><rect
       style="opacity:0.869;fill:none;fill-opacity:1;stroke:#000000;stroke-width:0.00264583;stroke-linecap:round;stroke-linejoin:miter;stroke-miterlimit:4;stroke-dasharray:none;stroke-dashoffset:0;stroke-opacity:1;paint-order:stroke fill markers"
       id="rect900"
       width="3.7041667"
       height="2.6458333"
       x="0.26458332"
       y="0.79374975" /><path
       style="fill:none;stroke:#000000;stroke-width:0.00264583;stroke-linecap:butt;stroke-linejoin:miter;stroke-miterlimit:4;stroke-dasharray:none;stroke-opacity:1"
       d="M 0,4.233333 4.2333333,-2.3e-7 v 0 0"
       id="path902" /><path
       id="path904"
       d="M 4.2333333,4.233333 0,-2.3e-7 v 0 0"
       style="fill:none;stroke:#000000;stroke-width:0.00264583;stroke-linecap:butt;stroke-linejoin:miter;stroke-miterlimit:4;stroke-dasharray:none;stroke-opacity:1" /><circle
       style="opacity:0.869;fill:none;fill-opacity:1;stroke:#1a1a1a;stroke-width:0.00292456;stroke-linecap:round;stroke-linejoin:miter;stroke-miterlimit:4;stroke-dasharray:none;stroke-dashoffset:0;stroke-opacity:1;paint-order:stroke fill markers"
       id="path908"
       cx="2.1164405"
       cy="2.1078401"
       r="1.8388741" /><circle
       r="0.79902029"
       cy="2.1078401"
       cx="2.1164405"
       id="circle912"
       style="opacity:0.869;fill:none;fill-opacity:1;stroke:#1a1a1a;stroke-width:0.00127077;stroke-linecap:round;stroke-linejoin:miter;stroke-miterlimit:4;stroke-dasharray:none;stroke-dashoffset:0;stroke-opacity:1;paint-order:stroke fill markers" /></g><g
     clip-path="url(#clip0_5092_57153)"
     id="g17377"
     transform="matrix(0.26458333,0,0,0.26458333,0.03053405,-0.03849542)"
     style="fill:none"><path
       fill-rule="evenodd"
       clip-rule="evenodd"
       d="m 15.3798,12.7117 c 0.1637,0.1574 0.1638,0.4193 10e-5,0.5767 l -2.7025,2.5992 C 12.4232,16.132 12,15.9519 12,15.5993 v -5.1955 c 0,-0.3525 0.423,-0.53262 0.6772,-0.2884 z"
       fill="#55a76a"
       id="path17373" /><path
       fill-rule="evenodd"
       clip-rule="evenodd"
       d="M 7.62255,13.2883 C 7.45909,13.1309 7.45916,12.8692 7.62271,12.7119 l 2.69889,-2.5956 c 0.2541,-0.24445 0.6773,-0.0644 0.6773,0.2882 v 5.1941 c 0,0.3528 -0.4234,0.5328 -0.6775,0.2882 z"
       fill="#e55765"
       id="path17375" /></g><path
     id="path17379"
     style="color:#000000;opacity:0.839806;fill:#e16c2f;fill-opacity:1;stroke:none;stroke-width:0.971318;stroke-dasharray:none"
     d="m 2.460071,0.17011728 a 0.24643456,0.24643456 0 0 0 -0.07779,0.014555 c 0.05104,0.034025 0.07924,0.078966 0.09285,0.1304893 0.0015,0.0068 0.0035,0.01178 0.0045,0.019072 a 0.11033658,0.11033658 0 0 1 0.002,0.018068 c 0.0039,0.088463 -0.0232,0.099074 -0.04216,0.1515685 a 0.21435432,0.21435432 0 0 0 0.01405,0.1977416 0.12005785,0.12005785 0 0 0 0.01205,0.022083 c -0.0384,-0.2537241 0.173422,-0.2916786 0.212794,-0.3713928 0.0029,-0.069506 -0.05417,-0.1159761 -0.09937,-0.1480552 a 0.22164529,0.22164529 0 0 0 -0.118946,-0.034128 z m 0.319699,0.057717 c -0.0039,0.022844 -10e-4,0.016957 -0.002,0.029109 l -0.002,0.025596 a 0.21824284,0.21824284 0 0 1 -0.007,0.024592 c -0.0019,0.00827 -0.0046,0.015825 -0.008,0.02409 l -0.01105,0.023087 c -0.0034,0.00389 -0.0046,0.00817 -0.008,0.012045 l -0.006,0.00853 a 0.34850805,0.34850805 0 0 1 -0.01506,0.020577 c -0.0063,0.00584 -0.01079,0.013199 -0.01807,0.018068 v 0.001 c -0.0058,0.00487 -0.01178,0.01121 -0.01907,0.01606 -0.0209,0.016038 -0.04538,0.028094 -0.06725,0.043162 -0.0073,0.00487 -0.01475,0.00921 -0.02058,0.014555 a 0.14679141,0.14679141 0 0 0 -0.01857,0.016562 c -0.0068,0.00582 -0.01223,0.012275 -0.01807,0.019573 -0.0049,0.00582 -0.01118,0.012269 -0.01506,0.019071 a 0.25615583,0.25615583 0 0 0 -0.01405,0.021581 l -0.01154,0.022585 c -0.0029,0.00827 -0.0056,0.015322 -0.0075,0.023588 a 0.32517696,0.32517696 0 0 0 -0.0075,0.025094 l -0.0015,0.012547 -0.002,0.012547 -10e-4,0.025094 c 0,0.00584 3.3e-5,0.012226 10e-4,0.018068 a 0.20560517,0.20560517 0 0 0 0.008,0.049184 l 0.008,0.02409 c 0.002,0.00487 0.0046,0.00968 0.007,0.014053 l -0.231352,-0.089335 a 2.48233,2.48233 0 0 0 -0.116437,-0.030113 l -0.06324,-0.015057 a 1.8645424,1.8645424 0 0 0 -0.182183,-0.027102 l -0.005,-0.001 a 1.7955212,1.7955212 0 0 0 -0.49586,0.018068 2.0171664,2.0171664 0 0 0 -0.135508,0.028105 l -0.04467,0.012045 c -0.01506,0.00584 -0.02907,0.013248 -0.04316,0.019573 l -0.03313,0.014554 c -0.0019,9.722e-4 -0.004,0.00103 -0.005,0.00201 -0.01021,0.00487 -0.01936,0.00921 -0.02811,0.014555 a 0.44377663,0.44377663 0 0 0 -0.03864,0.019072 c -0.0068,0.00242 -0.01374,0.00664 -0.01957,0.010038 a 0.09040795,0.09040795 0 0 1 -0.0095,0.00452 l -0.0261,0.014555 a 0.25275339,0.25275339 0 0 0 -0.02409,0.015558 c -0.0068,0.00487 -0.01374,0.00918 -0.01957,0.014053 -9.74e-4,0.00146 -0.0025,0.00104 -0.0035,0.00201 a 0.23185264,0.23185264 0 0 0 -0.01907,0.014053 l -0.002,0.00201 -0.01506,0.012045 -0.0055,0.00401 -0.01506,0.013049 c -9.74e-4,0.00195 -0.0035,0.00304 -0.0045,0.00402 l -0.01807,0.017064 c -9.74e-4,0 -0.001,0.00103 -0.002,0.00201 a 0.28191724,0.28191724 0 0 0 -0.01807,0.017064 c -4.87e-4,4.871e-4 -0.0013,0.00164 -0.0015,0.00201 l -0.01506,0.01606 -0.0075,0.00602 c -0.0049,0.00583 -0.01074,0.012226 -0.01706,0.018068 l -0.004,0.00502 -0.02309,0.02409 -0.003,0.00301 a 0.59299834,0.59299834 0 0 1 -0.05119,0.049184 0.7592323,0.7592323 0 0 1 -0.116437,0.08281 0.72326356,0.72326356 0 0 1 -0.128482,0.054203 c -0.04229,0.00874 -0.08552,0.025706 -0.122459,0.029109 -0.0083,0 -0.01683,0.00153 -0.02509,0.00251 l -0.0256,0.00653 -0.02409,0.00854 -0.02359,0.011042 -0.02208,0.014052 a 0.16380364,0.16380364 0 0 0 -0.02058,0.017064 c -0.0068,0.00487 -0.01372,0.012226 -0.01907,0.018067 -0.0063,0.00729 -0.0127,0.01328 -0.01757,0.020577 -0.0049,0.00777 -0.01118,0.014326 -0.01506,0.022584 a 0.17692737,0.17692737 0 0 0 -0.01405,0.023589 l -0.01154,0.025596 a 0.77381423,0.77381423 0 0 0 -0.0085,0.026098 c -0.0019,0.00826 -0.0045,0.016326 -0.005,0.024592 l -0.0015,0.00301 c -0.0019,0.00924 -0.002,0.020782 -0.003,0.027101 -9.74e-4,0.0068 -0.0015,0.013264 -0.0015,0.020076 0,0.00389 3.1e-5,0.00917 0.001,0.013049 a 0.10693412,0.10693412 0 0 0 0.01104,0.036638 v 10e-4 c 0.0029,0.00632 0.0067,0.012242 0.01104,0.018569 l 0.01255,0.018071 a 0.26636318,0.26636318 0 0 0 0.03664,0.032121 c 0.0243,0.0209 0.03012,0.02811 0.06123,0.043663 0.0049,0.0034 0.0097,0.00511 0.01606,0.00803 l 0.003,10e-4 a 0.20609123,0.20609123 0 0 0 0.01405,0.053702 l 0.0075,0.018067 0.0035,0.00452 a 0.44037419,0.44037419 0 0 0 0.01154,0.022584 l 0.01506,0.021079 a 0.29163853,0.29163853 0 0 0 0.01757,0.019071 l 0.01907,0.017064 0.002,0.001 a 0.22018709,0.22018709 0 0 0 0.08281,0.04517 l 0.0045,0.00201 0.01305,0.00301 c -0.0034,0.054439 -0.0043,0.1054779 0.004,0.123463 0.0087,0.019929 0.05362,-0.041441 0.09736,-0.1119197 -0.0058,0.069505 -0.0097,0.1508539 0,0.1751569 0.01119,0.025275 0.07146,-0.053488 0.123463,-0.1395233 A 1.1607214,1.1607214 0 0 1 2.167742,2.9028765 C 2.148352,2.8008114 2.020797,2.7447412 1.961468,2.7593382 1.931338,2.8337052 1.879998,2.929383 1.797855,2.9881965 A 0.64403508,0.64403508 0 0 0 1.788355,2.7874436 C 1.765995,2.8797956 1.722685,2.9660097 1.663386,3.0398903 A 0.28045905,0.28045905 0 0 1 1.421981,2.9319857 c -0.0039,-0.0034 -0.0046,-0.00965 -0.0075,-0.013049 -0.0029,-0.00729 -0.0061,-0.014278 -0.008,-0.021079 a 0.08360304,0.08360304 0 0 1 -0.006,-0.021079 c -9.71e-4,-0.00729 -0.001,-0.014315 -0.001,-0.022584 v -0.014555 a 0.17303887,0.17303887 0 0 1 0.01205,-0.042158 c 0.0039,-0.00729 0.0067,-0.014278 0.01154,-0.021079 0.01701,-0.048121 0.01705,-0.08757 -0.01405,-0.1104142 a 0.11422509,0.11422509 0 0 0 -0.01857,-0.010037 l -0.01355,-0.00401 -0.0075,-0.00301 c -0.0073,-0.00195 -0.01478,-0.00405 -0.02158,-0.00502 a 0.07631207,0.07631207 0 0 0 -0.02058,-0.00352 0.16380364,0.16380364 0 0 0 -0.02208,-0.00201 l -0.01506,10e-4 a 0.07825634,0.07825634 0 0 0 -0.02208,0.00352 c -0.0068,9.712e-4 -0.01427,0.00207 -0.02108,0.00401 a 0.17303887,0.17303887 0 0 0 -0.02158,0.00653 l -0.01958,0.00954 c -0.0058,0.00292 -0.01227,0.00661 -0.01957,0.00954 -0.23330896,0.1531102 -0.09368,0.5102707 0.06575,0.6138021 -0.06027,0.011188 -0.121508,0.024502 -0.138519,0.03714 l -0.002,0.00201 c 0.04326,0.026249 0.08836,0.048797 0.135508,0.067754 0.06416,0.0209 0.131973,0.039415 0.162108,0.047679 v 10e-4 c 0.0836,0.017012 0.167903,0.023414 0.253451,0.018068 a 0.95511619,0.95511619 0 0 0 0.225849,-0.044678 c -0.04875,-0.053263 -0.04678,-0.1364241 0.006,-0.1871987 L 2.800761,2.3568283 c 0.0034,-0.00325 0.007,-0.00572 0.01054,-0.00854 v -4.97e-4 c 0.02213,-0.022128 0.05241,-0.035633 0.08632,-0.035633 h 0.06474 c 0.05689,0 0.104576,0.038416 0.118445,0.09084 0.01545,-0.049896 0.06183,-0.085822 0.116938,-0.085822 h 0.01104 c 0.04464,-0.016152 0.0976,-0.00972 0.138018,0.029109 L 3.937015,2.9134157 C 4.302844,2.0266083 3.758953,1.1863407 3.51443,0.94352794 c -9.71e-4,-0.00195 -0.002,-0.00257 -0.002,-0.00452 l -0.001,0.00201 c 0,-9.712e-4 -4.9e-5,-0.00103 -0.0015,-0.00201 0,0.011665 -0.001,0.023969 -0.002,0.035634 a 1.3512585,1.3512585 0 0 1 -0.0095,0.067252 c -0.0049,0.022359 -0.01124,0.044391 -0.01706,0.066751 A 0.83505832,0.83505832 0 0 1 3.42717,1.2336132 0.68437842,0.68437842 0 0 1 3.34938,1.345533 C 3.33479,1.363041 3.31874,1.379681 3.3027,1.395721 L 3.27359,1.420314 3.25,1.440891 A 0.69604395,0.69604395 0 0 1 3.134567,1.513664 0.70722344,0.70722344 0 0 1 2.938331,1.577905 c -0.02284,0.00437 -0.04539,0.00659 -0.06775,0.00854 A 0.75485772,0.75485772 0 0 1 2.618138,1.557327 0.7456225,0.7456225 0 0 0 2.816382,1.513162 0.70284886,0.70284886 0 0 0 2.939845,1.451933 c 0.01944,-0.013612 0.03824,-0.026056 0.05671,-0.04015 a 0.54925256,0.54925256 0 0 0 0.05069,-0.04517 c 0.01701,-0.015064 0.03211,-0.032188 0.04718,-0.049687 0.01506,-0.017985 0.02903,-0.035717 0.04216,-0.053702 l 0.006,-0.010037 c 0.01021,-0.016534 0.02036,-0.032643 0.02911,-0.048683 a 0.69215544,0.69215544 0 0 0 0.0547,-0.1249686 c 0.0068,-0.021388 0.01169,-0.043874 0.01656,-0.065747 0.0039,-0.0228449 0.0081,-0.0453799 0.01004,-0.0672519 0.0024,-0.022844 0.0045,-0.04588 0.0045,-0.067754 0,-0.016534 -10e-4,-0.032643 -0.002,-0.048683 a 0.72812419,0.72812419 0 0 0 -0.02359,-0.135005 l -0.02158,-0.063739 a 0.69361363,0.69361363 0 0 0 -0.02861,-0.062233 l -0.03363,-0.059724 a 1.1087125,1.1087125 0 0 0 -0.04065,-0.054705 0.62799496,0.62799496 0 0 0 -0.07227,-0.076286 1.8489883,1.8489883 0 0 0 -0.139523,-0.098871 0.18713471,0.18713471 0 0 0 -0.02007,-0.00954 0.39176775,0.39176775 0 0 0 -0.09536,-0.042158 z M 2.134852,3.6531805 a 0.42190374,0.42190374 0 0 1 -0.01305,0.00903 l 0.003,0.00602 h 0.0015 l 0.02108,-0.00301 z M 2.325065,3.8363676 C 2.223306,3.9181486 2.11133,3.9878402 1.990811,4.043645 A 1.6526183,1.6526183 0 0 0 2.333095,3.984423 1.6040119,1.6040119 0 0 0 2.441,3.947785 Z" /><path
     id="path17381"
     style="color:#000000;opacity:0.839806;fill:#e0234e;stroke:none;stroke-width:1.00012;stroke-dasharray:none"
     d="m 3.635083,0.82995618 0.0098,0.013953 c -4.77e-4,-0.00114 -0.0021,-0.00619 -0.0021,-0.0062 -3.1e-5,-4.18e-5 -0.0043,-0.00432 -0.0078,-0.00775 z" /><path
     id="path17387"
     style="color:#000000;opacity:0.839806;fill:#e16c2f;fill-opacity:1;stroke:none;stroke-width:1.00012;stroke-dasharray:none"
     d="M 2.469263,3.2675375e-5 C 2.429853,7.4947537e-4 2.389113,0.00806268 2.351957,0.02121968 l -0.21084,0.074414 0.187586,0.125057 c 0.03017,0.020116 0.04022,0.038629 0.04858,0.07028 4.01e-4,0.00135 0.0024,0.00842 0.0021,0.00568 v 0.00207 0.00413 0.00155 c 0.0015,0.033825 -0.0011,0.036255 -0.0041,0.043408 -0.0028,0.00651 -0.01551,0.02985 -0.02894,0.064079 -0.02154,0.049585 0.0062,0.099954 0.0098,0.1524455 l -0.02377,-0.00982 -0.0057,-0.00207 c -0.04094,-0.011638 -0.08157,-0.023402 -0.123003,-0.033072 h -0.0021 l -0.06615,-0.015503 h -0.0021 c -0.06507,-0.013032 -0.131374,-0.022847 -0.197404,-0.029456 h -0.0021 l -0.0036,-0.00207 c -0.180566,-0.018543 -0.362305,-0.01194 -0.541053,0.019637 -0.0494,0.00851 -0.09806,0.01964 -0.146761,0.031523 h -0.0016 l -0.05271,0.015503 -0.0062,0.00207 c -0.02281,0.00885 -0.03996,0.016396 -0.05064,0.021187 l -0.03307,0.013953 c -7.95e-4,2.914e-4 -0.0016,0.0019 -0.0021,0.00207 -3.55e-4,1.319e-4 -0.002,-1.85e-5 -0.0021,0 -3.5e-5,1.56e-5 -0.003,0.00111 -0.0036,0.00155 -0.01038,0.00495 -0.02352,0.012081 -0.03927,0.021704 -0.01201,0.00576 -0.02563,0.010983 -0.03721,0.01757 l 0.0072,-0.00258 c -0.01149,0.00521 -0.0203,0.01064 -0.02687,0.014469 h -0.0016 l -0.0021,0.00155 -0.03152,0.01602 -0.0015,0.00155 c -0.01238,0.00696 -0.02415,0.013376 -0.03566,0.021704 -2.64e-4,1.897e-4 -0.0044,0.0049 -0.0057,0.00568 0.0024,-0.00121 -0.0054,0.00397 -0.0057,0.00413 -0.0019,0.00123 -0.0036,0.00171 -0.0062,0.00362 -0.0015,0.00113 -0.0015,0.00258 -0.0036,0.00413 -7.03e-4,5.535e-4 -0.0013,-5.942e-4 -0.0021,0 2.4e-5,-1.81e-5 -0.0018,0.00177 -0.0021,0.00207 -2.73e-4,2.974e-4 -0.001,0.00151 -0.0015,0.00207 -0.0015,0.00101 -0.0027,0.00258 -0.0041,0.00362 l -0.0078,0.00413 c -0.0025,0.00191 -0.0053,0.00371 -0.0078,0.00568 l -0.0098,0.00775 h -0.0021 l -0.0036,0.00413 -0.0083,0.00568 -0.02687,0.023254 -0.0098,0.00775 v 0.00207 h -0.0021 l -0.0021,0.00413 -0.0036,0.00207 v 0.00155 h -0.0021 l -0.0041,0.0062 c 8.4e-5,-8.43e-5 -0.0016,0.00319 -0.0036,0.00568 -3.77e-4,4.595e-4 -0.0017,-4.946e-4 -0.0021,0 l -0.0021,0.00207 c -0.0031,0.00294 -0.0068,0.00471 -0.0098,0.00775 -6.61e-4,6.723e-4 -0.0014,0.00139 -0.0021,0.00207 -9.83e-4,0.00119 -0.0033,0.00282 -0.0057,0.00568 3.3e-5,-3.82e-5 -0.002,0.00284 -0.0041,0.00568 l -0.0036,0.00413 -0.01189,0.00982 -0.0057,0.00568 c -0.0024,0.00282 -0.0036,0.00579 -0.0057,0.00775 l -0.0083,0.0062 -0.0057,0.00775 -0.01964,0.021187 -0.0036,0.00413 c -0.01345,0.014583 -0.0278,0.027949 -0.04289,0.040824 l -0.0021,0.00207 c -0.0319,0.027455 -0.06532,0.05136 -0.101803,0.072347 -0.03198,0.017209 -0.06477,0.031422 -0.09922,0.042891 -9.21e-4,1.904e-4 -0.0012,-1.922e-4 -0.0021,0 -0.05088,0.01069 -0.08623,0.024351 -0.101802,0.027389 -0.0022,0 -0.0016,-4.85e-5 -0.0036,0 -8.05e-4,1.339e-4 -0.0056,0.00202 -0.0062,0.00207 -0.0129,7.933e-4 -0.02543,0.00166 -0.02894,0.00207 h -0.0062 l -0.03876,0.0093 -0.03514,0.013953 -0.03721,0.01757 -0.03152,0.019637 c -0.01246,0.00877 -0.02426,0.018269 -0.03514,0.028939 -0.0099,0.00844 -0.01945,0.017358 -0.02532,0.023771 v 0.00207 h -0.0021 c -0.0016,0.00185 -0.01069,0.011143 -0.02532,0.033073 h -0.0015 v 0.00207 L 0.07977,1.2066404 c -0.0031,0.00239 -0.01285,0.013505 -0.02325,0.035657 -0.0042,0.00694 -0.0077,0.013919 -0.01137,0.021187 l -0.0021,0.00413 -0.01395,0.033073 -0.0021,0.00207 c -0.0036,0.01022 -0.0061,0.020663 -0.0093,0.031006 l -0.0021,0.00413 -0.0021,0.00362 c -2.87e-4,0.00122 -10e-4,0.012182 -0.0021,0.01602 l -0.0021,0.00155 -0.0015,0.013953 c -0.0014,0.00655 8.15e-4,0.00241 0,0.00775 -4.32e-4,0.00283 -0.0018,0.00178 -0.0021,0.00413 -7.9e-5,0.00106 6.7e-5,4.477e-4 0,0.00155 -0.0011,0.00999 -0.0033,0.027921 -0.0021,0.019637 v 0.00207 C 0.002701,1.4144434 0,1.4276424 0,1.4453804 c 0,0.00248 6.5799987e-4,0.015738 0.0015,0.025322 7e-5,6.157e-4 -7.4e-5,0.00146 0,0.00207 0.0013,0.010761 0.007,0.020587 0.0098,0.031006 v 0.01757 l 0.01188,0.023254 c 5.14e-4,0.00111 0.0016,0.00101 0.0021,0.00207 2.79e-4,5.53e-4 -2.84e-4,0.00152 0,0.00207 0.0071,0.014191 0.01441,0.024222 0.01912,0.031006 l 0.01809,0.025838 0.0057,0.00568 c 0.01396,0.014751 0.02887,0.028449 0.04496,0.040824 0.0015,0.00126 0.0042,0.00284 0.0057,0.00413 7.4e-4,5.479e-4 0.0013,0.00153 0.0021,0.00207 0.01383,0.01188 0.03318,0.02411 0.05271,0.03669 0.0027,0.00833 0.0023,0.017735 0.0057,0.025838 l 0.01395,0.031006 0.0078,0.011886 0.0021,0.00155 c 0.0023,0.0044 0.0033,0.00961 0.0057,0.013953 l 0.0041,0.00568 0.02119,0.029456 0.0021,0.00207 c 0.0078,0.00954 0.01665,0.018588 0.02532,0.027389 l 0.0021,0.00362 0.02532,0.021704 0.0078,0.00775 0.0155,0.00775 c 0.01281,0.00689 0.02658,0.012649 0.03927,0.019637 2e-6,0.00375 -6.2e-5,0.00819 0,0.011886 4.65e-4,0.027738 -0.0043,0.046024 0.01757,0.093534 0.0039,0.00769 0.01157,0.020754 0.01189,0.021187 3.52e-4,4.802e-4 0.02283,0.023448 0.02325,0.023771 8.43e-4,6.476e-4 0.06504,0.025272 0.06615,0.025321 0.0044,0.00774 0.01154,0.017115 0.01189,0.01757 4.57e-4,6.071e-4 0.0227,0.022847 0.02325,0.023254 0.0011,8.141e-4 0.06728,0.023721 0.06873,0.023771 7.26e-4,2.52e-5 0.01941,-5.245e-4 0.02739,-0.00207 0.008,-0.00155 0.01324,-0.00348 0.01912,-0.00568 0.01177,-0.00441 0.02033,-0.00941 0.02739,-0.013953 0.02823,-0.018168 0.04159,-0.032526 0.05684,-0.050643 0.01715,-0.020368 0.03388,-0.047486 0.05064,-0.072347 0.520685,-0.1094564 0.951797,0.2105348 1.146719,0.6759291 l -0.02946,0.00775 -0.02119,0.05271 c -0.0068,0.016869 -0.02431,0.029252 -0.03359,0.047026 L 1.66782,2.7812155 C 1.65445,2.8364335 1.62167,2.8848656 1.59186,2.933661 1.55529,2.924331 1.51636,2.92104 1.49212,2.890769 c -3.2e-4,-5.089e-4 3.47e-4,-0.00153 0,-0.00207 l -0.0021,-0.00413 v -0.00207 c 2.6e-5,-7.95e-5 0,7.017e-4 0,-0.00568 2.32e-4,-0.0012 -2.97e-4,-0.00294 0,-0.00413 8.57e-4,-0.0034 0.0027,-0.00607 0.0041,-0.0093 -4.42e-4,6.096e-4 7.09e-4,-0.00306 0,-0.00207 L 1.50192,2.849433 1.50762,2.83393 C 1.51959,2.800057 1.52935,2.762947 1.52519,2.7186915 1.52099,2.6744365 1.49425,2.6215995 1.45336,2.5915675 l -0.0021,-0.00207 -0.0041,-0.00155 c -0.0121,-0.0077 -0.02389,-0.014313 -0.03721,-0.019637 l -0.0036,-0.00207 -0.01395,-0.00362 -0.01137,-0.0062 h -0.0062 c -0.0076,-0.00203 -0.01849,-0.00537 -0.03514,-0.00775 -0.0064,-0.00135 -0.01257,-0.00293 -0.01912,-0.00362 l -0.01189,-0.00207 c -0.0085,-9.713e-4 -0.01674,-0.00188 -0.02532,-0.00207 h -0.0062 l -0.01912,0.00207 c -0.01672,6.08e-4 -0.03308,0.00287 -0.04909,0.00775 -0.0063,0.00105 -0.0103,9.474e-4 -0.01964,0.00362 -0.01082,0.00285 -0.02265,0.00574 -0.03307,0.00982 l -0.0021,0.00207 -0.02532,0.011886 h -0.0021 c -0.0125,0.00627 -0.01496,0.00712 -0.01137,0.00568 l -0.0098,0.00568 -0.0098,0.0062 C 0.93344405,2.7021974 0.89730305,2.8947013 0.92986905,3.0488887 c 0.01798,0.085153 0.0824501,0.1356982 0.12867395,0.2030884 -0.01327,0.0046 -0.02199,0.00204 -0.04289,0.01757 l -0.0057,0.00362 -0.10955395,0.1095541 0.12092295,0.074414 c 0.05004,0.030363 0.102713,0.056374 0.15658,0.078031 l 0.0036,0.00207 0.0041,0.00155 c 0.03631,0.011827 0.0585,0.018279 0.08992,0.027389 v 0.00775 l 0.08165,0.01602 0.0077,0.00155 c 0.0952,0.019371 0.191206,0.027839 0.289388,0.021704 h 0.0021 c 0.07061,-0.00513 0.135705,-0.019965 0.19637,-0.042892 L 1.738542,3.4602476 c -0.002,-0.00195 -0.0043,-0.00417 -0.0062,-0.0062 -0.0019,-0.00203 -0.0034,-0.0041 -0.0052,-0.0062 -0.0018,-0.0021 -0.0035,-0.00403 -0.0052,-0.0062 -0.0017,-0.00217 -0.0037,-0.00449 -0.0052,-0.00672 -0.0015,-0.00223 -0.0027,-0.00443 -0.0041,-0.00672 -0.0014,-0.00229 -0.0029,-0.00489 -0.0041,-0.00723 -0.0013,-0.00234 -0.0025,-0.00433 -0.0036,-0.00672 -0.0011,-0.00239 -0.0021,-0.0048 -0.0031,-0.00723 -0.001,-0.00243 -0.0017,-0.00528 -0.0026,-0.00775 -8.86e-4,-0.00247 -0.0018,-0.00473 -0.0026,-0.00723 -7.59e-4,-0.00251 -0.0014,-0.00522 -0.0021,-0.00775 -3.36e-4,-0.00135 -7.34e-4,-0.00278 -10e-4,-0.00413 -0.01696,0.00393 -0.03451,0.00691 -0.05323,0.00827 -0.04033,0.00252 -0.0791,-0.00677 -0.118856,-0.00982 L 1.286837,3.2266701 C 1.241797,3.1974201 1.170645,3.0976778 1.150411,3.0018777 c -0.02007,-0.095021 -0.008,-0.1660038 0.06821,-0.2170411 6.25e-4,-4.185e-4 -6.34e-4,-0.00114 0,-0.00155 0.0019,-0.00111 0.01,-0.00421 0.0098,-0.00413 l 0.0098,-0.00362 0.0078,-0.00413 c 4.72e-4,-1.283e-4 0.0016,1.176e-4 0.0021,0 h 0.0015 10e-4 c 9.78e-4,-4.85e-4 0.0034,-0.00152 0.0072,-0.00207 h 0.0078 l 0.0036,-0.00207 c 0.0018,-2.257e-4 0.0044,5.426e-4 0.0062,0 h 0.01137 l 0.0021,0.00207 -0.0021,0.00413 c -0.0098,0.022722 -0.01744,0.045822 -0.02119,0.07028 v 0.00982 0.023254 c 0,0.00851 -6.55e-4,0.020625 0.0016,0.037207 v 0.00207 c 0.0024,0.01709 0.0072,0.032693 0.01395,0.048576 0.0028,0.00706 0.0069,0.017535 0.0078,0.019637 l 0.0041,0.011886 0.0016,0.00568 0.0077,0.00775 0.0041,0.00568 c 0.0022,0.00402 0.0058,0.00677 0.0098,0.011886 0.08211,0.103385 0.208135,0.1616203 0.340031,0.1524455 l -0.0083,0.072347 0.205155,-0.1467611 c 0.08242,-0.059009 0.113749,-0.1352755 0.150379,-0.2067057 0.0094,0.00196 0.0071,0.00119 0.01757,0.00775 0.01376,0.00862 0.02325,0.017137 0.02946,0.025321 L 2.218509,2.7693337 C 2.059614,2.072991 1.386707,1.6013548 0.67183305,1.7750792 l -0.04703,0.00982 -0.02325,0.041341 c -8.84e-4,0.00146 -0.0012,0.00216 -0.0021,0.00362 l -0.01964,-0.00568 0.0041,-0.078031 -0.09612,-0.021704 h -0.0016 l -0.0062,-0.00207 c -0.01589,-0.0046 -0.0304,-0.012415 -0.04289,-0.023254 l -0.01188,-0.00982 h -0.0016 l -0.0021,-0.00207 -0.0057,-0.00568 c -5.77e-4,-6.359e-4 -0.0015,-0.00143 -0.0021,-0.00207 l -0.0041,-0.00568 -0.0036,-0.00413 -0.0021,-0.00362 -0.0057,-0.00775 c -8.89e-4,-0.00175 -0.0012,-0.00443 -0.0021,-0.0062 l -0.0041,-0.00775 -0.0021,-0.00362 -0.0016,-0.0062 v -0.00155 c -0.003,-0.00774 -0.0067,-0.015516 -0.0078,-0.023771 l -0.0083,-0.072347 -0.06201,-0.01912 -0.0021,-0.00207 -0.0078,-0.00413 c -0.02448,-0.012238 -0.01325,-0.0053 -0.04134,-0.029456 l -0.0021,-0.00155 -0.0036,-0.00413 c -0.008,-0.0058 -0.01494,-0.012487 -0.0217,-0.019637 l -0.0036,-0.00568 -0.0021,-0.00207 -0.0021,-0.00362 c 0,0.0026 0.0018,-0.00155 0.0021,-0.00413 v -0.00207 c 0.0016,-0.010577 0.002,-0.00764 0.0021,-0.00982 l 0.0021,-0.00568 0.0015,-0.01757 c 1.6e-4,-9.275e-4 4.79e-4,-0.00515 0.0021,-0.011885 0.0017,-0.00523 0.0039,-0.010313 0.0057,-0.015503 l 0.0062,-0.013436 0.0021,-0.0062 c 7.81e-4,-0.00126 6.89e-4,-0.00241 0.0016,-0.00362 l 0.0062,-0.00775 0.0057,-0.00982 c -0.0041,0.00868 0.0012,-7.257e-4 0.0057,-0.00775 l 0.0021,-0.00413 c -5.8e-5,3.617e-4 0.0017,0.00102 0.0057,-0.00362 l 0.0021,-0.00207 c 9.65e-4,-8.724e-4 0.0047,-0.00394 0.0021,-0.00207 l 0.0057,-0.00413 0.0062,-0.00568 c 0.0012,-0.00119 0.0023,-0.00254 0.0036,-0.00362 l 0.0041,-0.00207 0.01137,-0.00775 0.01395,-0.0062 0.01344,-0.00568 0.0083,-0.00207 c 0.0062,-7.25e-4 0.0094,-0.00176 0.01137,-0.00207 h 0.0062 l 0.0057,-0.00155 c 0.06419,-0.00591 0.10842,-0.025307 0.138493,-0.031523 l 0.0041,-0.00207 h 0.0057 c 0.05266,-0.01658 0.10394,-0.037741 0.152446,-0.064097 l 0.0021,-0.00207 c 0.04831,-0.027791 0.09412,-0.061396 0.136426,-0.097668 0.02121,-0.018096 0.04148,-0.036421 0.06046,-0.056844 l 0.0021,-0.00155 0.0021,-0.00207 0.02325,-0.025321 0.0041,-0.00413 0.0078,-0.00775 c 0.0013,-0.00135 0.0029,-0.0028 0.0041,-0.00413 l 0.01137,-0.011369 0.0041,-0.0062 0.01189,-0.011369 c 9.27e-4,-8.34e-4 8.36e-4,-0.00142 0.0016,-0.00207 h 0.0021 v -0.00207 c 6.5299e-4,-6.74e-4 0.0014,-0.0014 0.0021,-0.00207 6.63e-4,-6.635e-4 0.0014,-8.973e-4 0.0021,-0.00155 -2.8e-5,1.92e-5 0.0045,-0.00332 0.0078,-0.0062 l 0.0021,-0.00207 0.0036,-0.00362 c 9.2e-5,-9.25e-5 0.0032,-0.00264 0.0057,-0.00568 l 0.0098,-0.00982 c -0.0034,0.00292 -0.0061,0.00449 -0.0078,0.00568 0.0031,-0.00382 0.0061,-0.00765 0.0062,-0.00775 l 0.0015,0.00207 c 0.0015,-0.00128 0.003,-0.00107 0.0041,-0.00207 l 0.0021,-0.00207 0.0016,-0.00207 0.0083,-0.00775 0.0036,-0.00207 0.01964,-0.015503 c 0.0015,-0.00116 0.0021,-0.00252 0.0036,-0.00362 0.0012,-6.98e-4 0.002,-0.00281 0.0041,-0.00413 l 0.0041,-0.00207 0.0077,-0.00362 v -0.00207 c 5.3e-5,-4.05e-5 0.0043,-0.00268 0.0057,-0.00413 -0.0046,0.00382 -0.0011,0.00154 0.01188,-0.00775 h 0.0021 c 0.0046,-0.0033 0.0085,-0.00706 0.01344,-0.00982 l 0.01757,-0.00982 0.0098,-0.00568 c 0.0033,-0.0017 0.0067,-0.00381 0.0098,-0.00568 h 0.0021 l 0.0093,-0.00413 0.0083,-0.00362 c 0.0097,-0.00551 0.02084,-0.011476 0.03101,-0.01602 l 0.0057,-0.00362 0.0062,-0.00413 c 0.0015,-9.421e-4 0.0082,-0.0031 0.01344,-0.00568 -0.0036,0.0013 -0.0092,0.00188 -0.0098,0.00207 -0.0012,3.375e-4 0.0072,-0.00158 0.01395,-0.00413 3.81e-4,-1.835e-4 -3.96e-4,-0.00188 0,-0.00207 8.56e-4,-3.227e-4 0.0013,2.877e-4 0.0021,0 5.81e-4,-4.084e-4 0.004,-4.19e-4 0.0057,-0.00155 l 0.01189,-0.0062 0.01757,-0.00775 h 0.0015 c 0.01309,-0.00587 0.01966,-0.00995 0.02739,-0.013436 l 0.0078,-0.00207 c 9.29e-4,-3.887e-4 0.0033,-0.00174 0.0041,-0.00207 l 0.03101,-0.00775 c 0.04369,-0.01066 0.08849,-0.019752 0.132808,-0.027388 0.158223,-0.027952 0.318692,-0.033984 0.478524,-0.01757 l 0.0062,0.00207 c 0.05801,0.00575 0.1164493,0.013994 0.1736333,0.025322 l 0.0646,0.015503 c 0.03851,0.00896 0.07721,0.018641 0.115238,0.029456 l 0.517301,0.20101015 -0.148311,-0.26561675 -0.0021,-0.00568 -0.0057,-0.01757 v -0.00207 c -0.002,-0.00711 -0.0038,-0.013818 -0.0041,-0.021187 v -0.00827 l -0.0015,-0.00155 v -0.00207 -0.00207 l 0.0015,-0.015503 v -0.0062 -0.00362 l 0.0021,-0.00413 v -0.00568 c 7.831e-4,-0.00269 0.0032,-0.0051 0.0041,-0.00775 l 0.0021,-0.00413 v -0.00568 l 0.0057,-0.011886 0.0021,-0.00362 0.0036,-0.00775 c 0.0011,-0.00161 0.003,-0.00257 0.0041,-0.00413 l 0.0036,-0.00568 5.17e-4,-5.168e-4 c 7.27e-4,-0.0011 0.0037,-0.00448 0.0078,-0.0093 l 0.0015,-0.00207 c 0.002,-0.00255 0.0035,-0.00304 0.0041,-0.00362 7.1e-4,-6.11e-4 0.0011,-0.0014 5.16e-4,-0.00103 l 0.0031,-0.0031 0.0041,-0.00413 c 0.0015,-0.00159 0.0023,-0.00232 0.0041,-0.00362 l 0.0057,-0.00413 10e-4,-0.00103 h 5.17e-4 c 0.0014,-7.87e-4 0.0051,-0.00323 0.01034,-0.00672 v -0.00207 h 0.0015 c 0.01261,-0.00869 0.0372,-0.02133 0.06666,-0.042891 0.02199,-0.014624 0.03185,-0.025254 0.02946,-0.023254 l 0.04082,-0.03514 v -0.00982 c 0.005,-0.00654 0.01086,-0.012841 0.0155,-0.019637 l 0.0057,-0.00982 0.0098,-0.011369 0.01395,-0.031523 c 0.03748,0.024701 0.07352,0.050583 0.109037,0.078031 0.02231,0.01987 0.04385,0.04128 0.06253,0.064595 0.01239,0.015916 0.0237,0.032475 0.03514,0.049093 l 0.03152,0.05426 c 0.0079,0.015836 0.01468,0.032616 0.02119,0.049093 l 0.0217,0.060461 c 0.0096,0.03665 0.01463,0.073326 0.01757,0.1111044 9.42e-4,0.01552 0.0021,0.029299 0.0021,0.041341 0,0.015857 -0.0018,0.036608 -0.0041,0.058394 v 0.00207 c -0.0014,0.016133 -0.0058,0.03674 -0.0098,0.0604609 -0.0043,0.018897 -0.0087,0.0377379 -0.01344,0.05271 -0.01203,0.037101 -0.02804,0.073415 -0.04703,0.107487 v 0.00207 c -0.0065,0.011902 -0.01636,0.025036 -0.02739,0.042891 v 0.00207 l -0.0016,0.00207 c -0.01195,0.016369 -0.02321,0.03187 -0.03721,0.048576 -0.01484,0.017239 -0.02649,0.029784 -0.03721,0.039274 l -0.0041,0.00155 -0.0015,0.00413 c -0.01324,0.013285 -0.02655,0.025665 -0.04134,0.037207 v -0.00207 c -0.01605,0.012243 -0.03413,0.024818 -0.05478,0.039274 -0.03241,0.019808 -0.06576,0.037179 -0.101285,0.050643 -0.05619,0.020737 -0.114443,0.03244 -0.17415,0.037207 l 0.0083,0.2242758 c 0.0031,7.962e-4 0.0062,-7.617e-4 0.0093,0 0.08416,0.020396 0.171248,0.036199 0.257865,0.031523 h 0.0021 0.0021 c 0.02236,-0.00194 0.04789,-0.00419 0.07803,-0.00982 0.08094,-0.013917 0.161126,-0.039818 0.234611,-0.076481 0.04868,-0.02436 0.09345,-0.054442 0.136426,-0.08785 l 0.0021,-0.00155 0.02739,-0.021704 0.03307,-0.029456 0.0021,-0.00155 c 0.017,-0.017003 0.0364,-0.036967 0.05478,-0.058911 v -0.00207 c 0.03489,-0.040959 0.06529,-0.083736 0.09147,-0.1307414 l 0.0021,-0.00207 c 0.01075,-0.020073 0.01808,-0.041769 0.02739,-0.062528 0.125012,0.1645134 0.272297,0.3451093 0.353467,0.6562906 0.06096,0.2337226 -0.02994,0.5096377 -0.122473,0.784965 L 4.0867403,2.893885 C 4.2365193,2.5046581 4.2487443,2.1227712 4.1642503,1.7988614 4.0503533,1.362212 3.8212753,1.0494601 3.6598883,0.87902091 c -7.31e-4,-0.00176 -5.54e-4,-0.0038 -0.0016,-0.0062 -0.0011,-0.00113 -0.0031,-0.00457 -0.0041,-0.00568 -0.0064,-0.00665 -0.01349,-0.031102 -0.01964,-0.037207 -0.0069,-0.00686 -0.01536,-0.015398 -0.0155,-0.015503 -2.11e-4,-1.576e-4 -0.0053,-0.00388 -0.0057,-0.00413 l -0.175708,-0.1167894 v 0.2108398 c 0,0.00576 -0.0011,0.01596 -0.0021,0.027389 l 0.0021,-0.00413 c -0.0023,0.019346 -0.0066,0.039175 -0.0098,0.058394 -0.0035,0.015926 -0.0084,0.035753 -0.01395,0.056844 -0.01314,0.038672 -0.0293,0.075612 -0.04858,0.1116211 -0.01887,0.033521 -0.04166,0.066363 -0.06666,0.095601 v 0.00155 c -0.0076,0.00918 -0.01758,0.01931 -0.02739,0.029456 0.0092,-0.014779 0.0192,-0.029772 0.02946,-0.048576 0.02652,-0.047577 0.04795,-0.096967 0.0646,-0.1488281 v -0.00155 c 0.0087,-0.027377 0.01385,-0.052786 0.01912,-0.076481 l 0.0021,-0.00207 v -0.00362 c 0.0039,-0.022752 0.0093,-0.047911 0.01189,-0.075964 v -0.00207 c 0.0026,-0.024763 0.0036,-0.051603 0.0036,-0.080099 0,-0.021434 -5.41e-4,-0.040286 -0.0015,-0.056844 v -0.00207 c -0.0042,-0.053895 -0.01321,-0.1080233 -0.02739,-0.1601915 l -0.0021,-0.00155 -0.02325,-0.072347 -0.0021,-0.00207 c -0.01,-0.025258 -0.02066,-0.05026 -0.03307,-0.074414 v -0.00362 l -0.03927,-0.066663 -0.0041,-0.00362 c -0.01457,-0.021175 -0.02859,-0.042291 -0.04444,-0.062529 -0.02655,-0.033148 -0.05665,-0.065801 -0.08837,-0.094051 l -0.0036,-0.00155 -0.0021,-0.00207 c -0.04902,-0.038195 -0.100098,-0.073983 -0.15244,-0.1074873 l -0.0015,-0.00207 -0.0041,-0.00207 c -0.0053,-0.00296 -0.01008,-0.00511 -0.0155,-0.00775 l -0.0155,-0.00775 c -0.0048,-0.00274 -0.0111,-0.0031 -0.01602,-0.00568 l 0.0078,-0.049094 -0.136426,0.00207 -0.0217,0.1565796 c -0.01055,-0.025217 -0.01079,-0.058532 -0.02532,-0.076481 -0.03175,-0.039215 -0.06625,-0.063901 -0.09198,-0.082166 l -0.0036,-0.00155 -0.0021,-0.00207 c -0.04294,-0.027013 -0.09464,-0.035401 -0.144688,-0.041341 -0.01359,-0.00161 -0.02499,-0.01140600463 -0.03876,-0.0113690046252 z M 0.79339605,0.78138038 c -0.0022,0.00293 -0.0041,0.00564 -0.0041,0.00568 h -0.0016 c 0.003,-0.00269 0.0038,-0.00398 0.0057,-0.00568 z M 3.664538,0.89661878 c 5.06e-4,0.00204 0.0021,0.00791 0.0021,0.00775 h -0.0021 c -1.09e-4,-0.00157 2.76e-4,-0.004 0,-0.00775 z m -0.224792,0.00982 c 5.78e-4,0.00308 0.0063,0.022414 0.0098,0.03669 -0.0043,-0.010313 -0.0078,-0.021253 -0.0078,-0.021187 2.3e-5,1.564e-4 -0.0021,-0.015753 -0.0021,-0.015503 z" /></svg>
