<?xml version="1.0" encoding="UTF-8" standalone="no"?>
<svg
   id="svg8"
   version="1.1"
   viewBox="0 0 4.2164402 4.2126631"
   height="15.921875"
   width="15.936152"
   xml:space="preserve"
   xmlns="http://www.w3.org/2000/svg"
   xmlns:svg="http://www.w3.org/2000/svg"
   xmlns:rdf="http://www.w3.org/1999/02/22-rdf-syntax-ns#"
   xmlns:cc="http://creativecommons.org/ns#"
   xmlns:dc="http://purl.org/dc/elements/1.1/"><defs
     id="defs2" /><metadata
     id="metadata5"><rdf:RDF><cc:Work
         rdf:about=""><dc:format>image/svg+xml</dc:format><dc:type
           rdf:resource="http://purl.org/dc/dcmitype/StillImage" /><dc:title /></cc:Work></rdf:RDF></metadata><path
     id="path57514"
     style="color:#000000;opacity:0.839806;fill:#e0234e;stroke:none;stroke-width:1.00012;stroke-dasharray:none"
     d="m 3.6499266,0.797862 0.0098,0.01395 c -4.78e-4,-0.0011 -0.0021,-0.0062 -0.0021,-0.0062 -3.2e-5,-4.2e-5 -0.0043,-0.0043 -0.0077,-0.0078 z" /><path
     id="path57516"
     style="color:#000000;fill:#04675d;fill-opacity:1;stroke-linecap:square;stroke-linejoin:round;paint-order:stroke markers fill"
     d="m 2.4293286,0.001011 c -0.04091,7.44e-4 -0.08235,0.008 -0.120923,0.0217 a 0.13293029,0.13293029 0 0 0 -0.02946,0.236162 c 0.02423,0.01615 0.03246,0.02755 0.03927,0.05271 1.65e-4,6.09e-4 -1.65e-4,0.0014 0,0.0021 -1.03e-4,-9.06e-4 2.43e-4,0.0039 0,0.0021 a 0.13293029,0.13293029 0 0 0 0.0021,0.0036 0.13293029,0.13293029 0 0 0 0,0.0021 0.13293029,0.13293029 0 0 0 0,0.0021 c 9.52e-4,0.02518 -3.97e-4,0.0271 -0.0021,0.03101 -0.0016,0.0037 -0.01595,0.02717 -0.02946,0.06098 -0.01756,0.04043 0.0093,0.08161 0.0077,0.12454 -0.04025,-0.01141 -0.08017,-0.02153 -0.120923,-0.03101 l -0.0646,-0.0155 a 0.13293029,0.13293029 0 0 0 -0.0036,0 c -0.06089,-0.0122 -0.121681,-0.02089 -0.183446,-0.02739 l -0.0041,-0.0021 a 0.13293029,0.13293029 0 0 0 -0.0077,0 0.13293029,0.13293029 0 0 0 -0.0057,-0.0021 c -0.17816,-0.0183 -0.356934,-0.01152 -0.5333,0.01964 -0.04869,0.0084 -0.0967,0.01775 -0.144694,0.02946 a 0.13293029,0.13293029 0 0 0 -0.0036,0.0016 l -0.04496,0.01188 a 0.13293029,0.13293029 0 0 0 -0.01395,0.0041 c -0.02376,0.0092 -0.03896,0.01894 -0.04858,0.02325 v -0.0021 l -0.03152,0.01602 h -0.0021 a 0.13293029,0.13293029 0 0 0 -0.0015,0.0016 c -3.52e-4,1.53e-4 -0.04316,0.02714 -0.04341,0.02739 l 0.03721,-0.02532 c -0.01006,0.0048 -0.02407,0.01147 -0.04082,0.0217 -0.01166,0.0056 -0.02388,0.01117 -0.03514,0.01757 -0.0056,0.0029 -0.0135001,0.0054 -0.0175701,0.0078 -0.0015,6.73e-4 -0.0027,0.0012 -0.0041,0.0021 a 0.13293029,0.13293029 0 0 0 -0.0057,0.0036 l -0.02739,0.01395 c -0.01283,0.0072 -0.02528,0.01669 -0.03721,0.02532 v -0.0021 c 1.51e-4,-1.09e-4 -0.0095,0.0077 -0.01757,0.01344 l -0.0021,0.0021 c -0.0025,0.0019 -0.003,0.0021 -0.0057,0.0041 -7.62e-4,5.2e-4 -0.0013,0.0015 -0.0021,0.0021 a 0.13293029,0.13293029 0 0 0 -0.0015,0.0015 0.13293029,0.13293029 0 0 0 -0.0021,0 c -0.0015,0.0011 -0.0027,0.003 -0.0041,0.0041 -0.0038,0.0028 -0.0076,0.0048 -0.01137,0.0078 a 0.13293029,0.13293029 0 0 0 -0.01189,0.0098 l -0.0021,0.0021 a 0.13293029,0.13293029 0 0 0 -0.0077,0.0078 l 0.0021,-0.0041 a 0.13293029,0.13293029 0 0 0 -0.0077,0.0062 l -0.0083,0.0078 c -0.0022,0.0017 -0.0046,0.0059 -0.0093,0.0098 a 0.13293029,0.13293029 0 0 0 -0.0021,0.0015 0.13293029,0.13293029 0 0 0 -0.0041,0.0041 c -2.32e-4,7.4e-5 -0.002,0.002 -0.0021,0.0021 -1.2e-4,1.7e-4 -0.0014,-2.1e-4 -0.0015,0 -3.7e-5,2.5e-5 -0.0061,0.0046 -0.01188,0.0098 -0.0027,0.0024 -0.0051,0.0053 -0.0078,0.0078 2.7e-5,-2.7e-5 -0.0017,0.0011 -0.0021,0.0016 -3.36e-4,3.03e-4 -0.0021,0.0021 -0.0021,0.0021 -0.0046,0.0043 -0.009,0.0094 -0.01344,0.01395 0.0027,-0.0024 0.0048,-0.0015 0.0078,-0.0041 4.1e-4,-5.38e-4 -4.22e-4,-0.0015 0,-0.0021 0.0042,-0.0038 0.0099,-0.0078 0.0098,-0.0078 -1.6e-5,1.1e-5 0.0063,-0.0016 0.0077,-0.0021 0.0021,-6.68e-4 0.0073,-0.0023 0.01137,-0.0036 a 0.13293029,0.13293029 0 0 0 -0.01912,0.01344 0.13293029,0.13293029 0 0 0 -0.0155,0.0083 0.13293029,0.13293029 0 0 0 -0.0041,0.0016 c -3.54e-4,3.18e-4 -0.0018,-2.64e-4 -0.0021,0 -3.18e-4,3.86e-4 3.7e-4,0.0016 0,0.0021 -6.72e-4,6.04e-4 -0.0036,0.0021 -0.0036,0.0021 2.1e-5,-2.4e-5 -0.0027,0.0017 -0.0041,0.0036 l -0.0036,0.0041 -0.0021,0.0021 c -1.05e-4,1.3e-4 8e-6,0.0021 0,0.0021 a 0.13293029,0.13293029 0 0 0 -0.01395,0.01344 c -0.0017,0.0021 -0.0045,0.0031 -0.0057,0.0041 a 0.13293029,0.13293029 0 0 0 -0.01344,0.0155 l -0.01757,0.01964 -0.0021,0.0016 a 0.13293029,0.13293029 0 0 0 -0.0041,0.0041 c -0.01249,0.01354 -0.02681,0.02525 -0.04082,0.03721 a 0.13293029,0.13293029 0 0 0 0,0.0016 c -0.03,0.02581 -0.06129,0.04899 -0.0956,0.06873 -0.03213,0.01728 -0.06705,0.02973 -0.101802,0.04083 -8.14e-4,2.59e-4 -0.0013,0.0018 -0.0021,0.0021 -0.04746,0.01084 -0.09018,0.02276 -0.0956,0.02325 -0.01128,8.9e-4 -0.02503,0.0018 -0.02739,0.0021 a 0.13293029,0.13293029 0 0 0 -0.01757,0.0041 l -0.02532,0.0057 a 0.13293029,0.13293029 0 0 0 -0.01189,0.0041 l -0.02532,0.0093 a 0.13293029,0.13293029 0 0 0 -0.01137,0.0041 l -0.02377,0.01188 a 0.13293029,0.13293029 0 0 0 -0.0155,0.0078 l -0.0217,0.01344 a 0.13293029,0.13293029 0 0 0 -0.0057,0.0041 c -0.0075,0.0053 -0.01418,0.01159 -0.02119,0.01757 -0.0022,0.0015 -0.0022,0.0021 -0.0041,0.0036 -0.0038,0.0034 -0.0083,0.0063 -0.01189,0.0098 -0.0086,0.0077 -0.01778,0.0178 -0.02325,0.02377 a 0.13293029,0.13293029 0 0 0 -0.0021,0.0015 c -5.74e-4,6.62e-4 -0.01322,0.0093 -0.02946,0.03359 a 0.13293029,0.13293029 0 0 0 -0.001,0.0021 c -0.0018,0.0018 -0.01057,0.01394 -0.02222,0.03876 -0.0041,0.0067 -0.0099,0.0126 -0.01344,0.01964 a 0.13293029,0.13293029 0 0 0 -0.0021,0.0078 l -0.01189,0.02532 a 0.13293029,0.13293029 0 0 0 -0.0036,0.0078 c -0.0036,0.01022 -0.0066,0.02118 -0.0098,0.03152 a 0.13293029,0.13293029 0 0 0 -0.0021,0.0098 c -2.35e-4,9.98e-4 -0.0027,0.01359 -0.0041,0.01912 a 0.13293029,0.13293029 0 0 0 -0.0036,0.0098 c -0.0033,0.01565 -0.0015,0.01064 -0.0021,0.01757 -4.36e-4,0.0052 -0.0019,0.01759 -0.0021,0.01964 -8.53e-4,0.006 -0.003599997993,0.01979 -0.003599997993,0.03927 0,0.0032 -1.29999997e-4,0.01645 0.003599997993,0.03669 0.0031,0.02005 0.0095,0.04029 0.01757,0.05891 a 0.13293029,0.13293029 0 0 0 0.0041,0.01189 c 0.0086,0.01864 0.01583,0.02897 0.02119,0.03669 a 0.13293029,0.13293029 0 0 0 0,0.0021 l 0.01395,0.01757 a 0.13293029,0.13293029 0 0 0 0.01188,0.01395 c 0.01453,0.01536 0.02975,0.03002 0.04651,0.04289 0.0014,0.0012 0.0048,0.0024 0.0062,0.0036 7.36e-4,5.45e-4 8.09e-4,0.0015 0.0016,0.0021 0.01144,0.0098 0.02876,0.02186 0.04496,0.03307 0.0021,0.0058 0.0038,0.01184 0.0062,0.01757 a 0.13293029,0.13293029 0 0 0 0,0.0021 l 0.0078,0.01757 a 0.13293029,0.13293029 0 0 0 0.01344,0.02325 l 0.0041,0.0062 c 0.0016,0.0031 0.0019,0.0068 0.0036,0.0098 a 0.13293029,0.13293029 0 0 0 0.0083,0.01344 l 0.0155,0.0217 a 0.13293029,0.13293029 0 0 0 0.0057,0.0057 c 0.0081,0.0098 0.01638,0.02038 0.02532,0.02946 a 0.13293029,0.13293029 0 0 0 0.0062,0.0036 l 0.01912,0.01757 a 0.13293029,0.13293029 0 0 0 0.0021,0.0021 c 6.68e-4,5.8e-4 0.0014,0.0015 0.0021,0.0021 0.01461,0.01249 0.03429,0.01748 0.05064,0.02739 4.71e-4,0.02812 -0.0053,0.04712 0.01964,0.101286 0.0044,0.0089 0.01312,0.02335 0.01344,0.02377 3.43e-4,4.68e-4 0.02698,0.02862 0.02739,0.02894 6.56e-4,5.04e-4 0.04241,0.01454 0.06253,0.0217 0.0039,0.0065 0.0096,0.01518 0.0098,0.0155 4.45e-4,5.91e-4 0.02892,0.02699 0.02946,0.02739 0.0011,7.93e-4 0.07662,0.02734 0.07803,0.02739 7.07e-4,2.4e-5 0.02227,-2.78e-4 0.03152,-0.0021 0.0093,-0.0018 0.01649,-0.0052 0.02325,-0.0078 0.01353,-0.0051 0.0231,-0.01042 0.03101,-0.0155 0.03162,-0.02035 0.04541,-0.03628 0.06098,-0.05478 0.0146,-0.01734 0.02683,-0.04031 0.04082,-0.06046 0.4938691,-0.100887 0.9021171,0.199936 1.0877891,0.640806 a 0.13293029,0.13293029 0 0 0 -0.04289,0.03669 0.13293029,0.13293029 0 0 0 -0.187585,0.05478 c -0.01115,0.04604 -0.03892,0.08558 -0.06253,0.127124 -0.02283,-0.0088 -0.04832,-0.01026 -0.0646,-0.02946 4.05e-4,-0.0013 -5.29e-4,-0.0024 0,-0.0036 a 0.13293029,0.13293029 0 0 0 0.01602,-0.02946 c 0.01234,-0.0349 0.02212,-0.07266 0.01757,-0.120936 -0.0045,-0.04828 -0.03306,-0.10753 -0.07803,-0.14056 a 0.13293029,0.13293029 0 0 0 -0.0083,-0.0062 c -0.01301,-0.0083 -0.0265,-0.01546 -0.04082,-0.02119 a 0.13293029,0.13293029 0 0 0 -0.0077,-0.0021 l -0.0098,-0.0041 -0.0057,-0.0021 a 0.13293029,0.13293029 0 0 0 -0.01395,-0.0036 c -0.0048,-0.0013 -0.01387,-0.0037 -0.02325,-0.0057 -0.01039,-0.0028 -0.02084,-0.0051 -0.03152,-0.0062 l -0.01344,-0.0021 c -0.0088,-9.78e-4 -0.01854,-0.0014 -0.02739,-0.0016 a 0.13293029,0.13293029 0 0 0 -0.0098,0.0016 h -0.0078 c -0.02048,1.09e-4 -0.04087,0.0039 -0.06046,0.0098 l 0.01964,-0.0057 c -0.0052,7.36e-4 -0.01835,0.0039 -0.03359,0.0077 -0.01288,0.0032 -0.0264,0.0071 -0.03876,0.01189 a 0.13293029,0.13293029 0 0 0 -0.0077,0.0036 l -0.01964,0.0083 a 0.13293029,0.13293029 0 0 0 -0.0041,0.0015 c -0.01383,0.0069 -0.0156,0.0085 -0.0098,0.0062 a 0.13293029,0.13293029 0 0 0 -0.02325,0.01137 C 0.91125455,2.644015 0.87305855,2.843262 0.90607355,2.999574 c 0.01619,0.07663 0.07851,0.120555 0.11730505,0.183451 -0.0091,0.005 -0.01096,6.81e-4 -0.02325,0.0098 a 0.13293029,0.13293029 0 0 0 -0.0155,0.01188 l -0.0021,0.0015 a 0.13293029,0.13293029 0 0 0 0.0253201,0.20929 c 0.04991,0.03028 0.102452,0.05441 0.156063,0.07596 a 0.13293029,0.13293029 0 0 0 0.0077,0.0041 c 0.06822,0.02222 0.137433,0.04213 0.168465,0.05064 l -0.001,-10e-4 a 0.13293029,0.13293029 0 0 0 0.01033,0.0031 c 0.09468,0.01927 0.191599,0.0273 0.289388,0.02119 a 0.13293029,0.13293029 0 0 0 0.0021,0 c 0.204091,-0.01485 0.356152,-0.118686 0.479556,-0.261999 V 2.488932 C 1.8815806,1.931175 1.2966806,1.580048 0.67195955,1.731872 a 0.13293029,0.13293029 0 0 0 -0.12299,-0.02946 0.13293029,0.13293029 0 0 0 -0.03514,-0.0155 l -0.0077,-0.0041 a 0.13293029,0.13293029 0 0 0 -0.0078,-0.0016 c -0.01227,-0.0035 -0.02394,-0.0092 -0.03359,-0.01757 a 0.13293029,0.13293029 0 0 0 -0.02894,-0.01964 l 0.0093,0.0036 v -0.0016 c -0.0013,-0.0014 -0.0024,-0.0026 -0.0036,-0.0041 l -0.0021,-0.0021 -0.0036,-0.0057 -0.0041,-0.0078 c -2.61e-4,-5.29e-4 2.58e-4,-0.0015 0,-0.0021 a 0.13293029,0.13293029 0 0 0 -0.01189,-0.01757 h 0.0021 l 0.0021,0.0021 c -0.0025,-0.0061 -0.0049,-0.01304 -0.0057,-0.01964 a 0.13293029,0.13293029 0 0 0 -0.08992,-0.1095689 l -0.0021,-0.0016 h -0.0021 c -0.01885,-0.0093 -0.004,-0.0026 -0.03101,-0.02584 a 0.13293029,0.13293029 0 0 0 -0.0098,-0.0077 c -0.0046,-0.0034 -0.0077,-0.0074 -0.01189,-0.01137 l -0.0057,-0.0062 v -0.0015 c 8.97e-4,-0.0077 0.0038,-0.02209 0.0021,-0.01395 l -0.0041,0.0088 a 0.13293029,0.13293029 0 0 0 0,-5.17e-4 0.13293029,0.13293029 0 0 0 0,-5.16e-4 0.13293029,0.13293029 0 0 0 0,-5.17e-4 0.13293029,0.13293029 0 0 0 0,-5.17e-4 0.13293029,0.13293029 0 0 0 0,-5.17e-4 0.13293029,0.13293029 0 0 0 0,-5.16e-4 0.13293029,0.13293029 0 0 0 0.0078,-0.02687 l 0.0021,-0.0021 -0.0021,0.0098 c 0.0014,-0.0045 0.0026,-0.0094 0.0041,-0.01395 l 0.0036,-0.0078 0.0041,-0.01189 0.0036,-0.0057 a 0.13293029,0.13293029 0 0 0 0.01189,-0.01964 c -0.0051,0.01087 0.0019,3.1e-4 0.0057,-0.0057 l 0.0021,-0.0041 c 10e-6,2.86e-4 -0.0019,0.0051 0.0057,-0.0036 a 0.13293029,0.13293029 0 0 0 0.0098,-0.0098 l 0.0062,-0.0041 0.0098,-0.0057 0.0098,-0.0041 0.01137,-0.0057 0.0098,-0.0021 0.0098,-0.0016 a 0.13293029,0.13293029 0 0 0 0.0057,0 c 0.06796,-0.0063 0.110409,-0.02604 0.136943,-0.03152 a 0.13293029,0.13293029 0 0 0 0.01344,-0.0021 c 0.05276,-0.0166 0.103849,-0.03974 0.152445,-0.06615 a 0.13293029,0.13293029 0 0 0 0.0021,0 c 0.0488,-0.02807 0.09582,-0.06095 0.138493,-0.09767 0.02067,-0.01763 0.04034,-0.03701 0.05891,-0.05684 l 0.0015,-0.0021 a 0.13293029,0.13293029 0 0 0 0.0021,-0.0016 l 0.02377,-0.02584 0.0077,-0.0093 0.0036,-0.0041 0.0077,-0.0078 a 0.13293029,0.13293029 0 0 0 0.0077,-0.0078 0.13293029,0.13293029 0 0 0 0.0021,0 l 0.01395,-0.0155 c -3.9e-5,3.9e-5 0.0014,-0.0033 0.0021,-0.0041 7e-6,-5e-6 -0.0029,9.58e-4 -0.0031,0.001 a 0.13293029,0.13293029 0 0 0 0.01085,-0.0088 h 5.17e-4 c 4.67e-4,10e-5 6.99e-4,3e-4 0.001,0 a 0.13293029,0.13293029 0 0 0 0.0031,-0.0031 c 4.41e-4,-2.34e-4 7.53e-4,-6.94e-4 0.001,-0.001 5.8e-4,-7.63e-4 0.0018,-0.0012 0.0021,-0.0015 l 0.0036,-0.0041 c 4.47e-4,-5.44e-4 0.0014,-0.0013 0.0021,-0.0021 2.36e-4,-2.12e-4 0.0019,1.43e-4 0.0021,0 4.5e-4,-3.24e-4 0.0014,-0.0015 0.0021,-0.0021 8.02e-4,-9.81e-4 7.13e-4,-5.27e-4 0.0015,-0.0016 0.003,-0.0025 0.0054,-0.0037 0.0083,-0.0062 v -0.0016 l 0.0057,-0.0041 0.0057,-0.0057 h 0.0021 a 0.13293029,0.13293029 0 0 0 0.0021,-0.0021 l 0.01344,-0.01189 a 0.13293029,0.13293029 0 0 0 0.0041,-0.0036 c 6.9e-4,-3.65e-4 0.0017,-0.0017 0.0021,-0.0021 -2.3e-5,1.3e-5 0.0012,-0.0018 0.0015,-0.0021 a 0.13293029,0.13293029 0 0 0 0.0041,-0.0021 0.13293029,0.13293029 0 0 0 0.0021,-0.0021 0.13293029,0.13293029 0 0 0 0.0098,-0.0057 c 7e-5,-5.4e-5 0.005,-0.0049 0.0078,-0.0078 l -0.0021,0.0041 c 0.0024,-0.0017 0.006,-0.0041 0.01189,-0.0083 0.0037,-0.0027 0.0074,-0.0055 0.01137,-0.0078 l 0.01602,-0.0098 0.0093,-0.0036 c 0.0046,-0.0024 0.0095,-0.0051 0.01395,-0.0078 a 0.13293029,0.13293029 0 0 0 0.01757,-0.0078 c 0.0088,-0.005 0.01816,-0.0098 0.02739,-0.01395 a 0.13293029,0.13293029 0 0 0 0.01344,-0.0078 c 8.08e-4,-4.93e-4 0.0071,-0.0028 0.01757,-0.0078 l 0.0062,-0.0041 0.02739,-0.01137 a 0.13293029,0.13293029 0 0 0 0.0015,0 c 0.01788,-0.008 0.02849,-0.01488 0.03514,-0.01757 h 0.0021 l 0.03152,-0.0078 c 0.04073,-0.0098 0.08169,-0.01872 0.12299,-0.02584 0.147653,-0.02608 0.299834,-0.03166 0.449068,-0.01757 h 0.0057 0.0021 a 0.13293029,0.13293029 0 0 0 0.0098,0.0021 c 0.05704,0.0057 0.113812,0.01406 0.170016,0.02532 l 0.05839,0.01395 a 0.13293029,0.13293029 0 0 0 0.0021,0 c 0.03718,0.0086 0.07284,0.01901 0.109554,0.02946 l 0.220648,0.08575 a 0.13293029,0.13293029 0 0 0 0.167948,-0.177764 l -0.0021,-0.0041 -0.0021,-0.0057 -0.0036,-0.01344 v -0.0021 c -0.0014,-0.0051 -0.0018,-0.01021 -0.0021,-0.0155 a 0.13293029,0.13293029 0 0 0 0,-5.17e-4 0.13293029,0.13293029 0 0 0 0,-5.17e-4 0.13293029,0.13293029 0 0 0 0,-5.17e-4 0.13293029,0.13293029 0 0 0 0,-5.16e-4 0.13293029,0.13293029 0 0 0 0,-5.17e-4 0.13293029,0.13293029 0 0 0 0,-5.17e-4 0.13293029,0.13293029 0 0 0 0,-5.17e-4 0.13293029,0.13293029 0 0 0 0,-5.16e-4 0.13293029,0.13293029 0 0 0 0,-5.17e-4 0.13293029,0.13293029 0 0 0 0,-5.17e-4 0.13293029,0.13293029 0 0 0 0,-5.17e-4 0.13293029,0.13293029 0 0 0 0,-5.16e-4 0.13293029,0.13293029 0 0 0 -5.17e-4,-0.0021 l 5.17e-4,-5.17e-4 c 6.3e-5,-6.37e-4 0,-0.0016 0,-0.0031 v -0.01189 -0.0036 a 0.13293029,0.13293029 0 0 0 0,-5.17e-4 0.13293029,0.13293029 0 0 0 0,-5.16e-4 0.13293029,0.13293029 0 0 0 0,-5.17e-4 0.13293029,0.13293029 0 0 0 0,-5.17e-4 l 0.0021,-0.01188 c 4.08e-4,-0.0013 0.0011,-0.0023 0.0015,-0.0036 a 0.13293029,0.13293029 0 0 0 0.0021,-0.0083 l 0.0021,-0.0036 0.0098,-0.0155 v -0.0021 c 5.21e-4,-7.45e-4 0.0015,-0.0013 0.0021,-0.0021 a 0.13293029,0.13293029 0 0 0 0.0077,-0.01189 h 0.0021 a 0.13293029,0.13293029 0 0 0 0.0015,-0.0036 0.13293029,0.13293029 0 0 0 0.0098,-0.0098 l 0.0021,-0.0021 a 0.13293029,0.13293029 0 0 0 0.0057,-0.0041 c -8.4e-4,7.49e-4 0.0012,-8.89e-4 0.0031,-0.0026 0.0017,-0.0013 0.004,-0.0028 0.0067,-0.0047 a 0.13293029,0.13293029 0 0 0 0.0021,0 c 0.01041,-0.0072 0.03491,-0.02187 0.0646,-0.04341 0.01794,-0.01193 0.02824,-0.02073 0.03101,-0.02325 a 0.13293029,0.13293029 0 0 0 0.0021,-0.0057 c 0.0095,-0.009 0.0272,-0.02265 0.0217,-0.01757 a 0.13293029,0.13293029 0 0 0 0.01344,-0.01602 c 0.0061,-0.0077 0.01191,-0.01517 0.01757,-0.02325 0.0026,-0.003 0.004,-0.0048 0.0047,-0.0057 h -5.17e-4 l 0.0036,-0.0078 a 0.13293029,0.13293029 0 0 0 0.01395,-0.0217 c 0.03023,0.02056 0.05898,0.04215 0.08785,0.0646 4.22e-4,3.27e-4 0.0011,-3.28e-4 0.0015,0 0.01842,0.01697 0.0355,0.03523 0.05116,0.05478 0.01203,0.01542 0.02406,0.0304 0.03514,0.04651 l 0.02739,0.05116 c 0.0074,0.01473 0.01514,0.02912 0.02119,0.04444 l 0.01757,0.05478 c 0.0093,0.03497 0.01476,0.06935 0.01757,0.10542 9.07e-4,0.01503 0.0021,0.0284 0.0021,0.03927 0,0.01405 -0.0014,0.03383 -0.0036,0.05478 a 0.13293029,0.13293029 0 0 0 0,0.0021 c -0.0013,0.01451 -0.0043,0.0332 -0.0083,0.05633 -0.0041,0.01795 -0.0091,0.03556 -0.01344,0.04909 -0.01126,0.03469 -0.02513,0.06736 -0.04289,0.09922 a 0.13293029,0.13293029 0 0 0 -0.0021,0.0021 c -0.0058,0.01063 -0.01445,0.02528 -0.02532,0.04289 a 0.13293029,0.13293029 0 0 0 0,0.0021 c -0.01108,0.01513 -0.02421,0.03151 -0.03721,0.04703 -0.01326,0.01531 -0.02451,0.02756 -0.03307,0.03514 a 0.13293029,0.13293029 0 0 0 -0.0062,0.0057 c -0.01223,0.01227 -0.0251,0.02241 -0.03876,0.03307 -0.0131,0.0099 -0.02803,0.02176 -0.04496,0.03359 -0.03108,0.01943 -0.06553,0.03543 -0.09973,0.04858 -0.0528,0.01948 -0.107716,0.03273 -0.163814,0.03721 a 0.13293029,0.13293029 0 0 0 0.0077,0.2635499 c 0.0045,0.0011 0.0089,10e-4 0.01344,0.0021 0.0823,0.01933 0.165539,0.03402 0.250114,0.02946 a 0.13293029,0.13293029 0 0 0 0.0041,-0.0021 c 0.02168,-0.0019 0.04918,-0.004 0.0801,-0.0098 0.08113,-0.01395 0.158366,-0.03921 0.232027,-0.07596 0.04882,-0.02443 0.09591,-0.0528 0.13901,-0.0863 a 0.13293029,0.13293029 0 0 0 0.0057,-0.0057 l 0.02325,-0.01964 0.02739,-0.02325 a 0.13293029,0.13293029 0 0 0 0.0098,-0.0078 c 0.01704,-0.01704 0.03578,-0.03611 0.05478,-0.05891 h -0.0021 c 0.03543,-0.04143 0.06752,-0.08518 0.09405,-0.132809 a 0.13293029,0.13293029 0 0 0 0,-5.17e-4 0.13293029,0.13293029 0 0 0 0,-5.16e-4 0.13293029,0.13293029 0 0 0 0,-5.17e-4 c 0.003,-0.0056 0.0049,-0.01189 0.0078,-0.01757 0.115787,0.159524 0.248563,0.310372 0.321945,0.591695 0.01728,0.06626 0.0194,0.136467 0.01137,0.20929 H 4.1486814 C 4.1415814,1.95198 4.1266414,1.859553 4.1037214,1.771677 3.9922985,1.344515 3.7716965,1.0401361 3.6112445,0.86940712 c -0.002,-0.0022 -0.0037,-0.0098 -0.0057,-0.01189 -0.0065,-0.0068 -0.01338,-0.03043 -0.01964,-0.03669 -0.0072,-0.0071 -0.02154,-0.02365 -0.0217,-0.02377 -2.07e-4,-1.53e-4 -0.0053,-0.0034 -0.0057,-0.0036 a 0.13293029,0.13293029 0 0 0 -0.02739,-0.0021 0.13293029,0.13293029 0 0 0 -0.04496,-0.0021 0.13293029,0.13293029 0 0 0 -0.08992,0.04134 0.13293029,0.13293029 0 0 0 -0.02894,0.01344 v 0.0021 l 0.01757,0.0036 a 0.13293029,0.13293029 0 0 0 -0.02377,0.03927 c 0.0011,-0.01491 0.0021,-0.02861 0.0021,-0.04496 0,-0.02177 -0.0011,-0.04069 -0.0021,-0.05684 a 0.13293029,0.13293029 0 0 0 0,-5.17e-4 0.13293029,0.13293029 0 0 0 0,-5.16e-4 0.13293029,0.13293029 0 0 0 0,-5.17e-4 c -0.0042,-0.05399 -0.01317,-0.107944 -0.02739,-0.160197 a 0.13293029,0.13293029 0 0 0 -0.0015,-0.0078 l -0.02377,-0.0646 a 0.13293029,0.13293029 0 0 0 -0.0015,-0.0057 c -0.01001,-0.02533 -0.02114,-0.05019 -0.03359,-0.07441 a 0.13293029,0.13293029 0 0 0 -0.0036,-0.0057 l -0.03359,-0.06098 a 0.13293029,0.13293029 0 0 0 -0.0057,-0.0078 c -0.01447,-0.02103 -0.02922,-0.04243 -0.04496,-0.06253 a 0.13293029,0.13293029 0 0 0 -0.0021,0 c -0.0267,-0.03332 -0.05597,-0.06513 -0.08785,-0.09353 a 0.13293029,0.13293029 0 0 0 -0.0057,-0.0057 c -0.04838,-0.03768 -0.09878,-0.0729 -0.150405,-0.105948 a 0.13293029,0.13293029 0 0 0 -0.0057,-0.0036 c -0.0049,-0.0028 -0.01097,-0.0052 -0.01602,-0.0078 l -0.01912,-0.0098 c -0.02476,-0.0138 -0.0519,-0.02344 -0.07855,-0.03307 -8.08e-4,-2.92e-4 -7.4e-4,-0.0018 -0.0015,-0.0021 a 0.13293029,0.13293029 0 0 0 -0.0041,0 c -0.0088,-0.0031 -0.01634,-0.0093 -0.02532,-0.01188 v 0.0062 a 0.13293029,0.13293029 0 0 0 -0.04909,-0.0098 0.13293029,0.13293029 0 0 0 -0.05426,0.05271 c -0.02087,-0.01918 -0.04289,-0.04133 -0.05892,-0.05271 a 0.13293029,0.13293029 0 0 0 -0.0057,-0.0041 c -0.0423,-0.0266 -0.09147,-0.03377 -0.1405639,-0.04082 a 0.13293029,0.13293029 0 0 0 -0.0062,-0.0062 v 0.0041 c -0.01497,-0.0019 -0.0277,-0.01193000421 -0.04289,-0.011890004213 a 0.13293029,0.13293029 0 0 0 -0.0015,0 z m -0.125057,0.722437 c 0.0019,0.0034 0.0044,0.0067 0.0062,0.01034 7.05e-4,0.0012 -7.19e-4,0.0024 0,0.0036 z m 1.055233,0.203605 c 0.0024,0.01038 0.0035,0.01401 0.0057,0.02325 -0.0037,-0.0088 -0.0064,-0.01439 -0.0078,-0.01757 2.32e-4,-0.0022 0.0019,-0.0034 0.0021,-0.0057 z m -3.09386805,0.503845 0.0077,0.02946 a 0.13293029,0.13293029 0 0 0 -0.0077,-0.02739 z M 1.2480056,2.747097 c -0.0049,0.0153 -0.01151,0.03111 -0.01395,0.04703 a 0.13293029,0.13293029 0 0 0 -0.0015,0.01964 v 0.01344 c 0,0.0083 -8.37e-4,0.02333 0.0015,0.04134 a 0.13293029,0.13293029 0 0 0 0.0021,0.0015 c 0.002,0.01378 0.0053,0.02614 0.0098,0.03927 7.76e-4,0.0027 0.0013,0.0018 0.0021,0.0041 0.0012,0.0032 7.23e-4,0.0061 0.0021,0.0093 0.003,0.0076 0.0071,0.01812 0.0077,0.01964 a 0.13293029,0.13293029 0 0 0 0.0057,0.01189 c 0.0013,0.003 0.0043,0.0084 0.0098,0.01757 a 0.13293029,0.13293029 0 0 0 0.0057,0.0077 c 0.0018,0.0025 0.0019,0.005 0.0041,0.0078 0.08463,0.109122 0.21984,0.169781 0.357601,0.160197 a 0.13293029,0.13293029 0 0 0 0.09353,-0.05064 c 0.0051,-0.0064 0.0069,-0.01514 0.01189,-0.0217 a 0.13293029,0.13293029 0 0 0 0.09767,-0.0057 c 0.07798,-0.05583 0.10416,-0.12476 0.14056,-0.19172 0.01447,0.01007 0.02043,0.01795 0.02119,0.0217 3.5e-5,1.78e-4 -1.8e-5,0.0019 0,0.0021 a 0.13293029,0.13293029 0 0 0 0.01964,0.02532 c -0.136952,0.139816 -0.197,0.361653 -0.404107,0.376722 -0.07132,0.0045 -0.140339,-0.0018 -0.21084,-0.0155 -0.01294,-0.0035 -0.04506,-0.01436 -0.06873,-0.02119 A 0.13293029,0.13293029 0 0 0 1.2909196,3.1496 c -0.0363,-0.02357 -0.104531,-0.117761 -0.12299,-0.205155 -0.01846,-0.08739 -0.01045,-0.143425 0.05684,-0.187586 5.21e-4,-3.35e-4 0.0061,-0.0023 0.0057,-0.0021 l 0.0098,-0.0036 0.0036,-0.0021 a 0.13293029,0.13293029 0 0 0 0.0041,-0.0021 z m 0.872298,0.703833 c -0.01736,0.01542 -0.03491,0.03032 -0.05374,0.04444 -0.0086,0.0059 -0.01957,0.01193 -0.0217,0.01344 a 0.13293029,0.13293029 0 0 0 -0.0021,0.0021 l -0.0057,0.0041 a 0.13293029,0.13293029 0 0 0 -0.0021,0.0016 c -0.005,0.0037 -0.01026,0.0085 -0.0155,0.01189 a 0.13293029,0.13293029 0 0 0 -0.04703,0.170015 l 0.0021,0.0057 a 0.13293029,0.13293029 0 0 0 0.09767,0.06046 c -0.06122,0.04024 -0.100634,0.105778 -0.16795,0.136947 a 0.13293029,0.13293029 0 0 0 0.06459,0.253732 c 0.05076,-0.0034 0.101187,-0.0088 0.151412,-0.01654 z" /><path
     id="path57518"
     style="color:#000000;fill:#9efaf0;fill-opacity:0.75;stroke-width:0.265834;stroke-linecap:square;stroke-linejoin:round;paint-order:stroke markers fill"
     d="m 2.4308786,0.13382 a 0.24736668,0.24736668 0 0 0 -0.07803,0.01447 c 0.05123,0.03415 0.07987,0.07954 0.09353,0.131258 0.0015,0.0068 0.0031,0.01129 0.0041,0.0186 a 0.11075393,0.11075393 0 0 1 0.0021,0.01809 c 0.0039,0.0888 -0.02335,0.09975 -0.04237,0.152446 a 0.2151651,0.2151651 0 0 0 0.01395,0.198437 0.12051196,0.12051196 0 0 0 0.0124,0.02222 c -0.03854,-0.254684 0.173905,-0.293087 0.213425,-0.373103 0.0029,-0.06977 -0.05436,-0.116111 -0.09973,-0.148312 a 0.22248364,0.22248364 0 0 0 -0.119373,-0.03411 z m 0.320911,0.05788 c -0.0039,0.02293 -0.0011,0.01674 -0.0021,0.02894 l -0.0021,0.02584 a 0.21906833,0.21906833 0 0 1 -0.0067,0.02429 c -0.002,0.0083 -0.0049,0.01651 -0.0083,0.02481 l -0.01085,0.02274 c -0.0034,0.0039 -0.0048,0.0085 -0.0083,0.0124 l -0.0057,0.0088 a 0.34982626,0.34982626 0 0 1 -0.0155,0.02015 c -0.0063,0.0059 -0.01078,0.0132 -0.01809,0.01809 v 0.001 c -0.0059,0.0049 -0.0118,0.01115 -0.01912,0.01602 -0.02098,0.0161 -0.04574,0.02828 -0.0677,0.04341 -0.0073,0.0049 -0.0143,0.0096 -0.02015,0.01499 a 0.14734662,0.14734662 0 0 0 -0.01912,0.01654 c -0.0068,0.0058 -0.01223,0.01231 -0.01809,0.01964 -0.0049,0.0058 -0.0111,0.01229 -0.01499,0.01912 a 0.25712472,0.25712472 0 0 0 -0.01447,0.0217 l -0.01085,0.02274 c -0.0029,0.0083 -0.0058,0.01547 -0.0077,0.02377 a 0.32640693,0.32640693 0 0 0 -0.0078,0.02532 l -0.0015,0.0124 -0.0021,0.0124 -10e-4,0.02532 c 0,0.0059 6.4e-5,0.01222 10e-4,0.01809 a 0.20638286,0.20638286 0 0 0 0.0083,0.04909 l 0.0078,0.02429 c 0.0019,0.0049 0.0048,0.01008 0.0072,0.01447 L 2.2618426,0.66815 A 2.4917192,2.4917192 0 0 0 2.1445376,0.63766 L 2.0809776,0.62267 A 1.8715949,1.8715949 0 0 0 1.8980426,0.59528 l -0.0046,-0.001 a 1.8023127,1.8023127 0 0 0 -0.497644,0.01809 2.0247962,2.0247962 0 0 0 -0.136426,0.02842 l -0.04444,0.0124 c -0.01512,0.0059 -0.02926,0.01277 -0.04341,0.01912 l -0.03359,0.01499 c -0.002,9.75e-4 -0.0037,0.0011 -0.0047,0.0021 -0.01025,0.0049 -0.01964,0.0091 -0.02842,0.01447 a 0.44545519,0.44545519 0 0 0 -0.03876,0.01964 c -0.0068,0.0024 -0.01378,0.0064 -0.01964,0.0098 a 0.0907499,0.0907499 0 0 1 -0.0093,0.0047 l -0.02636,0.01447 a 0.25370942,0.25370942 0 0 0 -0.02429,0.01602 c -0.0068,0.0049 -0.01379,0.0085 -0.01964,0.01344 -9.75e-4,0.0015 -0.0027,0.0016 -0.0036,0.0026 a 0.23272959,0.23272959 0 0 0 -0.01912,0.01344 l -0.0015,0.0026 -0.0155,0.01189 -0.0057,0.0041 -0.01499,0.01344 c -9.75e-4,0.002 -0.0037,0.0026 -0.0046,0.0036 l -0.01809,0.01705 c -9.75e-4,0 -5.74e-4,0.0011 -0.0015,0.0021 a 0.28298358,0.28298358 0 0 0 -0.01809,0.01705 c -9.75e-4,9.76e-4 -0.0011,0.0021 -0.0021,0.0021 l -0.01499,0.01602 -0.0077,0.0062 c -0.0049,0.0058 -0.01071,0.01222 -0.01705,0.01809 l -0.0036,0.0052 -0.02325,0.02429 -0.0031,0.0026 a 0.59524131,0.59524131 0 0 1 -0.05116,0.04961 0.76210404,0.76210404 0 0 1 -0.117305,0.08268 0.72599925,0.72599925 0 0 1 -0.128674,0.05478 c -0.04245,0.0088 -0.08591,0.02604 -0.12299,0.02946 -0.0083,0 -0.01703,0.0011 -0.02532,0.0021 l -0.02532,0.0067 -0.02429,0.0088 -0.02429,0.01085 -0.0217,0.01447 a 0.16442322,0.16442322 0 0 0 -0.02067,0.01705 c -0.0068,0.0049 -0.01426,0.01222 -0.01964,0.01809 -0.0063,0.0073 -0.01268,0.01283 -0.01757,0.02015 -0.0049,0.0078 -0.0111,0.01497 -0.01499,0.02325 a 0.17759658,0.17759658 0 0 0 -0.01395,0.02325 l -0.01137,0.02584 a 0.77674112,0.77674112 0 0 0 -0.0088,0.02635 c -0.002,0.0083 -0.0041,0.01599 -0.0046,0.02429 l -0.0016,0.0031 c -0.002,0.0093 -0.0021,0.02105 -0.0031,0.02739 -9.75e-4,0.0068 -0.0021,0.01332 -0.0021,0.02015 0,0.0039 5.8e-5,0.009 0.001,0.01292 a 0.1073386,0.1073386 0 0 0 0.01137,0.03721 v 0.001 c 0.0029,0.0063 0.007,0.01225 0.01137,0.0186 l 0.0124,0.01757 a 0.26737068,0.26737068 0 0 0 0.03669,0.03256 c 0.0244,0.02098 0.03027,0.02831 0.0615,0.04392 0.0049,0.0034 0.0097,0.0053 0.01602,0.0083 l 0.0031,0.001 a 0.20687075,0.20687075 0 0 0 0.01395,0.05374 l 0.0077,0.01757 0.0036,0.0052 a 0.44203986,0.44203986 0 0 0 0.01137,0.02222 l 0.0155,0.02119 a 0.29274164,0.29274164 0 0 0 0.01757,0.01964 l 0.01912,0.01705 0.0015,0.001 a 0.22101994,0.22101994 0 0 0 0.08372,0.04496 l 0.0041,0.0021 0.01344,0.0031 c -0.0034,0.05465 -0.0047,0.10597 0.0036,0.124024 0.0088,0.02 0.05376,-0.04139 0.09767,-0.112138 -0.0058,0.06977 -0.0098,0.150788 0,0.175183 0.01123,0.02537 0.07182,-0.05368 0.124023,-0.140043 a 1.1651116,1.1651116 0 0 1 1.416975,0.901749 V 2.048644 h 1.902726 c -0.06745,-0.5386439 -0.36916,-0.9744129 -0.534334,-1.13843184 -9.7e-4,-0.002 -0.0021,-0.0027 -0.0021,-0.0047 l -5.17e-4,0.0021 c 0,-9.76e-4 -8e-5,-0.0011 -0.0015,-0.0021 0,0.01171 -0.0011,0.02446 -0.0021,0.03617 a 1.3563696,1.3563696 0 0 1 -0.0098,0.06718 c -0.0049,0.02244 -0.01121,0.04422 -0.01705,0.06666 a 0.83821684,0.83821684 0 0 1 -0.05478,0.12609 0.68696703,0.68696703 0 0 1 -0.07803,0.112138 c -0.01464,0.01757 -0.03041,0.03402 -0.04651,0.05013 l -0.02946,0.02532 -0.02325,0.02015 a 0.6986767,0.6986767 0 0 1 -0.116272,0.07338 0.70989846,0.70989846 0 0 1 -0.196887,0.06408 c -0.02293,0.0044 -0.04577,0.0063 -0.06821,0.0083 a 0.75771291,0.75771291 0 0 1 -0.253218,-0.02894 0.74844278,0.74844278 0 0 0 0.198954,-0.04393 0.70550734,0.70550734 0 0 0 0.124024,-0.0615 c 0.01952,-0.01366 0.0383,-0.02616 0.05684,-0.04031 a 0.55133007,0.55133007 0 0 0 0.05116,-0.04547 c 0.01708,-0.01512 0.03242,-0.03256 0.04754,-0.05013 0.01512,-0.01805 0.0292,-0.03569 0.04237,-0.05374 l 0.0057,-0.0098 c 0.01025,-0.0166 0.02067,-0.03299 0.02946,-0.04909 a 0.69477347,0.69477347 0 0 0 0.05426,-0.1255741 c 0.0068,-0.02147 0.01217,-0.04419 0.01705,-0.06615 0.0039,-0.02293 0.0078,-0.04522 0.0098,-0.06718 0.0024,-0.02293 0.0047,-0.04626 0.0047,-0.06821 0,-0.0166 -0.0011,-0.03299 -0.0021,-0.04909 a 0.73087829,0.73087829 0 0 0 -0.02326,-0.134875 l -0.02222,-0.0646 a 0.69623718,0.69623718 0 0 0 -0.02842,-0.06253 l -0.03411,-0.05943 a 1.1129061,1.1129061 0 0 0 -0.04031,-0.05478 0.63037031,0.63037031 0 0 0 -0.07286,-0.077 1.855982,1.855982 0 0 0 -0.140044,-0.0987 0.18784255,0.18784255 0 0 0 -0.01964,-0.0098 0.39324958,0.39324958 0 0 0 -0.09612,-0.04237 z m -1.48053,2.420008 -0.01499,10e-4 a 0.07855234,0.07855234 0 0 0 -0.02274,0.0031 c -0.0068,9.69e-4 -0.01383,0.0022 -0.02067,0.0041 a 0.17369337,0.17369337 0 0 0 -0.0217,0.0067 l -0.01964,0.0093 c -0.0059,0.0029 -0.01231,0.0069 -0.01964,0.0098 -0.23419305,0.15369 -0.09441,0.51206 0.06563,0.615983 -0.0605,0.01123 -0.121934,0.02452 -0.139009,0.03721 l -0.0021,0.0021 c 0.04342,0.02635 0.0891,0.04867 0.136425,0.0677 0.0644,0.02098 0.132532,0.03976 0.162781,0.04806 v 10e-4 c 0.08392,0.01708 0.168377,0.02345 0.254248,0.01809 a 0.95872883,0.95872883 0 0 0 0.490413,-0.178794 v -0.42633 c -0.04178,-0.0729 -0.139704,-0.110474 -0.189653,-0.09819 -0.03025,0.07465 -0.08239,0.170407 -0.164847,0.229443 a 0.6464711,0.6464711 0 0 0 -0.0098,-0.201021 c -0.02244,0.0927 -0.06553,0.179054 -0.125057,0.253214 A 0.28151987,0.28151987 0 0 1 1.3890646,2.906169 c -0.0039,-0.0034 -0.0054,-0.01003 -0.0083,-0.01344 -0.0029,-0.0073 -0.0063,-0.01436 -0.0083,-0.02119 a 0.08391926,0.08391926 0 0 1 -0.0057,-0.02119 c -9.69e-4,-0.0073 -10e-4,-0.01392 -10e-4,-0.02222 v -0.01499 a 0.17369337,0.17369337 0 0 1 0.0124,-0.04237 c 0.0039,-0.0073 0.0065,-0.01436 0.01137,-0.02119 0.01708,-0.0483 0.01727,-0.08817 -0.01395,-0.111104 a 0.11465713,0.11465713 0 0 0 -0.01912,-0.0093 l -0.01292,-0.0046 -0.0077,-0.0031 c -0.0073,-0.002 -0.01488,-0.0037 -0.0217,-0.0047 a 0.07660072,0.07660072 0 0 0 -0.02067,-0.0036 0.16442322,0.16442322 0 0 0 -0.02222,-0.0015 z m 0.849044,1.007173 -0.0062,0.0047 a 0.42349955,0.42349955 0 0 1 -0.02274,0.0155 l 0.0031,0.0057 h 0.0016 l 0.02429,-0.0031 z m 0,0.317294 c -0.05164,0.03133 -0.105356,0.06015 -0.160714,0.08578 a 1.6588692,1.6588692 0 0 0 0.160714,-0.01964 z" /><path
     d="m 4.2343886,2.622831 c 0,-0.172077 -0.137445,-0.311572 -0.307003,-0.311572 h -1.228013 c -0.169553,0 -0.307003,0.139495 -0.307003,0.311572 v 1.246287 c 0,0.172081 0.13745,0.311572 0.307003,0.311572 h 1.228013 c 0.169558,0 0.307003,-0.139491 0.307003,-0.311572 z"
     fill="#548af7"
     id="path57520"
     style="fill:#3574f0;fill-opacity:1;stroke-width:0.15464" /><path
     d="m 2.5665956,2.934403 h 0.727091 V 3.090189 H 3.0063756 V 3.869118 H 2.8528746 V 3.090189 h -0.286279 z"
     fill="#ffffff"
     id="path57522"
     style="stroke-width:0.15464" /><path
     d="m 3.7253156,3.885102 c -0.06519,0 -0.122933,-0.01198 -0.173243,-0.03596 -0.05031,-0.02443 -0.08968,-0.05817 -0.11812,-0.10123 -0.02844,-0.04351 -0.04287,-0.09324 -0.04331,-0.149181 h 0.155525 c 0,0.0293 0.0077,0.05549 0.02297,0.07858 0.01531,0.02309 0.03653,0.04107 0.06365,0.05395 0.02757,0.01243 0.05907,0.01865 0.0945,0.01865 0.03457,0 0.06496,-0.0058 0.09121,-0.01732 0.02625,-0.01154 0.04637,-0.02774 0.06037,-0.04861 0.01445,-0.02131 0.02166,-0.04574 0.02166,-0.07327 0,-0.03463 -0.01028,-0.06438 -0.03084,-0.08924 -0.02057,-0.02531 -0.04791,-0.04085 -0.08203,-0.04662 l -0.155527,-0.02664 c -0.04462,-0.008 -0.08333,-0.02398 -0.116144,-0.04795 -0.03281,-0.02398 -0.05818,-0.05394 -0.07612,-0.08991 -0.0175,-0.03641 -0.02625,-0.07615 -0.02625,-0.119212 0,-0.0515 0.01312,-0.09768 0.03937,-0.138525 0.02669,-0.04129 0.06365,-0.07348 0.1109,-0.09657 0.04725,-0.02353 0.100614,-0.0353 0.160111,-0.0353 0.06082,0 0.11485,0.01132 0.162098,0.03397 0.04768,0.02264 0.08487,0.05417 0.11155,0.09457 0.02669,0.0404 0.04025,0.08658 0.04069,0.138525 h -0.155528 c 0,-0.02531 -0.0066,-0.04795 -0.01969,-0.06793 -0.01313,-0.02042 -0.0315,-0.03619 -0.05512,-0.04729 -0.02362,-0.0111 -0.05096,-0.01665 -0.08202,-0.01665 -0.03107,0 -0.05841,0.0053 -0.08203,0.01598 -0.02362,0.01065 -0.042,0.02575 -0.05512,0.04529 -0.01312,0.01954 -0.01969,0.04218 -0.01969,0.06793 0,0.03019 0.0096,0.05639 0.02887,0.07859 0.01925,0.02176 0.0444,0.0353 0.07547,0.04062 l 0.152887,0.02531 c 0.04507,0.008 0.0851,0.02509 0.1201,0.05128 0.03543,0.0262 0.06277,0.05883 0.08202,0.0979 0.01925,0.03907 0.02887,0.08058 0.02887,0.124541 0,0.05328 -0.014,0.101448 -0.042,0.144523 -0.028,0.04262 -0.06714,0.07613 -0.11746,0.10056 -0.0503,0.02441 -0.107835,0.03663 -0.172582,0.03663 z"
     fill="#ffffff"
     id="path57524"
     style="stroke-width:0.15464" /></svg>
